<?xml version="1.0" encoding="UTF-8"?>
<svg id="_图层_2" data-name="图层 2" xmlns="http://www.w3.org/2000/svg" viewBox="0 0 1460.37 1002.94">
  <defs>
    <style>
      .cls-1 {
        fill: #000;
        stroke-width: 0px;
      }
    </style>
  </defs>
  <g id="_图层_1-2" data-name="图层 1">
    <path class="cls-1" d="M1158.35,939.07c2.31,4.16,5.56,7.65,6.09,11.5,1.01,7.36-5.09,15.86-15.17,11.45-6.09-2.66-12.08-5.83-17.55-9.6-7.06-4.87-14.01-8.6-23.72-4.7,2.82,1.52,6.13,2.19,7.23,4.13,2.33,4.09,4.45,8.77,4.77,13.35.18,2.52-3.06,7.01-5.48,7.58-4.08.97-9.3.7-13.03-1.13-9.02-4.43-17.83-9.52-26-15.36-6.91-4.94-13.47-4.05-22.64-1.56,3.22,1.93,5.17,2.81,6.77,4.1,3.76,3.03,8.5,5.64,10.63,9.61,1.43,2.66.19,9.74-1.81,10.67-4.78,2.24-11.58,4.16-16,2.36-10.1-4.11-19.49-10.17-28.73-16.12-7.87-5.07-15.56-8.59-25.1-5.18-2.18.78-4.87.11-7.94,1.71,3.69,2.01,7.5,3.83,11.03,6.07,7.29,4.63,8.3,10.15,3.72,18.58-2,3.67-10.66,5.09-15.93,2.13-9.02-5.06-18.01-10.21-26.71-15.81-9.96-6.41-20.3-10.38-33.31-7.2,4.24,2.87,8.06,5.6,12.01,8.12,5.67,3.61,6.08,9.28,3.8,14.19-1.44,3.1-5.88,6.34-9.22,6.63-3.89.33-8.33-1.99-12.05-4.03-10.58-5.78-20.98-11.88-31.32-18.09-8.3-4.98-8.22-5.13-20.45-4.11,4.74,5.3,9.28,10.07,13.45,15.15,3.95,4.81,3.95,14.21.38,17.42-3.79,3.42-14.22,2.28-18.44-2.08-6.73-6.95-13.41-13.95-20.13-20.92-3.23-3.35-5.99-4.11-11.02-1.72-17.37,8.24-35.86,12.91-54.67,17.36-24.72,5.84-49.37,4.77-74.05,4.22-13.7-.3-27.35-4.39-40.95-7.17-7.16-1.46-14.29-3.36-21.17-5.81-8.24-2.93-16.12-6.84-24.32-9.91-1.56-.58-4.43.16-5.71,1.35-8.01,7.47-15.9,15.09-23.5,22.97-3.98,4.13-12.8,4.9-17.57.86-4.23-3.58-4.06-10.91.28-15.56,4.85-5.2,9.63-10.46,14.74-16.04-10.8-3.07-19.24,1.51-27.78,6.74-10.24,6.27-20.71,12.2-31.31,17.85-6.19,3.3-11.78,1.49-14.38-3.78-3.74-7.59-2.36-11.96,4.66-16.07,3.73-2.18,7.17-4.86,11.8-8.05-10.94-.83-20.28-1.5-29.46,4.7-10.06,6.79-20.71,13.13-31.92,17.68-12.25,4.97-18.29,1.63-17.38-10.67.22-3.01,3.37-6.23,5.92-8.53,3.14-2.83,7.06-4.79,11.18-7.47-13.87-2.9-25.44-2.44-37.11,6.36-9.24,6.97-21.15,10.65-32.26,14.74-2.66.98-8.25-1.22-10.04-3.72-2.81-3.93-3.71-9.57,1.14-13.42,4.53-3.6,9.51-6.64,14.35-9.96-13.02-6.81-22.42,2.16-32.56,7.56-6.1,3.25-11.85,7.15-18,10.27-5.9,2.99-11.3,1.06-14.39-4.46-3.94-7.04-2.96-11.51,3.34-15.83,2.2-1.51,4.26-3.23,6.35-4.83-8.67-2.09-14.97-.09-22.1,4.64-5.98,3.97-12.88,6.6-19.5,9.56-7.67,3.42-11.96-1.99-14.15-7.47-2.29-5.72.04-11.27,8.67-13.91-7.35-2.67-11.34-3.67-17.54.76-9.85,7.04-21.36,12.04-32.72,16.48-2.9,1.14-9.28-2-11.6-5.04-3.72-4.9-1.67-10.62,3.17-14.53,2.44-1.97,5.43-3.24,8.39-4.95-11.81-6.14-16.75-5.95-27.62.62-7.48,4.52-14.97,9.03-22.6,13.29-4.75,2.65-9.71,3.69-14.87.51-5.56-3.43-3.71-8.94-3.72-13.65,0-1.87,2.44-4.05,4.22-5.55,2.69-2.25,5.78-4.02,8.81-6.06-14.11-7.1-23.98.95-34.39,7.48-6.3,3.95-13.44,4.4-20.46,2.28-3.82-1.15-4.15-10.86-1.22-15.69,1.28-2.11,1.66-4.75,2.45-7.15-2.55-.57-5.09-1.58-7.65-1.63-10.72-.19-18.27,7.26-27.09,11.66-14.3,7.13-24.7,3.69-22.51-13.64-16.22,0-32.35.12-48.48-.05-9.34-.09-18.68-.62-28.02-.99-7.07-.28-12.15-5.28-11.08-12.27.9-5.92,6.1-8.51,11.58-9.15,4.95-.58,10.01-.12,15-.12.39-17.21,11.7-18.28,22.61-12.22,18.22,10.12,18.16,14.6,40.6,11.82.12-2.49.1-5,.39-7.47,1.33-11.37,8.01-14.64,18.31-8.77,5.57,3.17,11.03,6.59,16.25,10.3,8.56,6.07,17.87,2.99,26.6,3.07-1.58-3.87-3.87-7.46-4.39-11.29-.58-4.26-1.14-10.13,4.83-11.13,4.75-.8,10.45-.8,14.67,1.15,8.19,3.78,15.43,9.57,23.46,13.74,3.49,1.81,7.98,1.68,13.14,2.64-1.84-2.85-2.44-4.97-3.75-5.61-7.52-3.64-6.24-9.37-3.63-15.09,1.96-4.3,10.82-6.37,16.18-3.65,8.1,4.11,17.09,7.51,23.58,13.52,9.21,8.52,18.1,2.02,26.61,3.33-2.13-5.05-5.62-9.4-5.4-13.54.57-10.58,6.9-12.87,17.8-8.72,8.21,3.13,15.48,8.6,23.5,12.34,5.48,2.56,11.51,3.93,16.89,5.69-1.36-6.62-3.32-11.69-3.15-16.69.14-4.12,2.85-6.88,8.54-7.02,11.76-.29,20.09,7,28.75,12.46,6.11,3.85,11.2,3.94,17.71,3.33-.65-2.32-1.73-4.26-1.61-6.12.27-4.16-.23-10.42,2.09-11.92,3.41-2.19,9.4-2.19,13.61-.9,5.85,1.8,11.28,5.33,16.49,8.74,6.86,4.48,13.53,8.44,20.89,4.12-1.89-3.57-5.23-7.25-5.69-11.27-1.21-10.54,7.5-16.09,17-11.04,9.83,5.23,19.31,11.12,28.44,16.43,0-4.74-.98-9.65.23-13.94,1.88-6.72,7.47-8.19,14.03-4.96,5.4,2.66,10.88,5.15,17.2,8.12-14.5-40.18-19.72-81.02-14.18-124.12-31.27-4.49-62.64-9-94.77-13.61-2.14,8.26-4.18,16.14-6.22,24.03-1.48,5.74-9.28,10.66-14.9,9.39-5.64-1.27-8.81-6.76-7.56-13.53,1.04-5.61,2.76-11.12,3.37-16.77.3-2.77-1.21-5.74-1.89-8.61-3.02,1.61-7.66,2.5-8.75,4.96-2.62,5.93-3.74,12.55-5.15,18.96-1.51,6.88-6.17,10.01-13.98,8.97-6.05-.81-9.43-5.07-8.45-11.78,1.1-7.56,2.86-15.03,4.62-24.03-7.71-1.11-16.34-2.27-24.95-3.62-16.1-2.53-32.17-5.28-48.29-7.71-10.96-1.65-21.98-2.85-32.96-4.39-13.16-1.85-26.31-3.74-39.44-5.8-11.65-1.83-23.22-4.19-34.9-5.79-11.29-1.54-22.68-2.36-34.01-3.61-3.63-.4-7.29-.87-10.81-1.78-18.76-4.89-34.93,5.92-52.46,8.44-6.24.9-12.49,1.63-18.73,2.54-6.81.99-9.7-2.45-10.16-8.74-.41-5.75,4.42-11.27,9.98-12.62,10.66-2.59,21.21-5.67,34.17-9.18-3.78-3.31-6.17-5.12-8.23-7.26-7.24-7.55-14.44-15.14-21.48-22.88-1.4-1.54-2.87-3.86-2.79-5.75.17-4.12-.02-10.33,2.37-11.84,4.4-2.78,10.52-4.02,15.46,1.18,7.78,8.19,15.72,16.23,23.81,24.12,4.87,4.75,10.04,9.21,15.28,13.56,1.17.97,3.37,1.6,4.78,1.22,14.7-3.99,29.34-8.22,44.74-12.59-3.26-5.88-6.49-11.68-9.69-17.5-4.44-8.1-2.4-15.04,5.62-19.18,5.2-2.69,10.62.13,14.85,7.57,3.51,6.18,7.11,12.31,10.77,18.4,2.7,4.5,3.98,4.68,12.5,2.22-3.52-7.65-7.57-15.1-10.34-22.99-1.66-4.73-2.9-10.55,4.27-13.24,6.69-2.51,12.24-2.05,16.1,4.72,3.32,5.82,6.98,11.46,9.93,17.46,2.54,5.16,5.73,7.76,11.64,5.96,8.51-2.59,17.03-5.17,25.62-7.49,16.68-4.52,33.44-8.78,50.12-13.29,22.57-6.1,45.11-12.32,68.76-18.79-5.1-8.56-9.8-16.84-14.88-24.87-5.14-8.14-6.13-17.3.81-21.04,5.97-3.22,12.69-2.94,16.27,2.79,7.32,11.71,14.13,23.73,22.3,37.56,3.06-10.99,5.59-20.21,8.19-29.41,2.36-8.33,4.85-16.62,7.17-24.96,2.25-8.07,9.04-6.9,14.17-5.6,3.02.77,6.5,5.44,7.05,8.81.72,4.36-1.04,9.22-2.13,13.78-2.22,9.25-4.71,18.43-7.39,28.84,3.2-.7,4.79-1.08,6.39-1.39,10.19-1.96,13.42.07,20.51,12.7,4.96,8.83,9.9,17.67,14.95,26.44,12.71,22.06,25.48,44.1,38.25,66.13,2.96,5.11,6.04,10.16,10.14,17.04,19.46-58.04,53.26-103.64,103.24-137.38-6.91-11.94-13.82-23.92-20.79-35.87-2.51-4.3-5.41-8.38-7.71-12.79-3.3-6.31-1.37-15.18,4.68-17.61,5.57-2.23,11.05-.91,14.72,5.12,6.69,11.01,13.81,21.77,20.99,33.02,6.32-14.79,9.34-28.8-2.34-42.87-5.38-6.48-8.98-14.51-12.97-22.05-3.11-5.87-.4-14.09,5.12-17.25,4.52-2.59,12.11.36,15.64,6.13,3.34,5.47,6.64,10.97,10.72,17.73,2.5-8.79,5.15-16.31,6.59-24.05.57-3.07-.88-6.98-2.49-9.91-5.86-10.61-12.42-20.85-18.23-31.49-2.79-5.11-4.08-11.82,1.12-15.4,3.53-2.43,10.86-3.35,14.08-1.25,4.72,3.08,7.31,9.45,10.74,14.46,1.16,1.7,2.11,3.56,4.21,7.13,3.36-11.54,6.39-21.05,8.72-30.72.43-1.8-1.9-4.32-3.06-6.45-4.6-8.47-9.51-16.78-13.78-25.41-4.14-8.37-2.64-13.8,3.8-16.88,7.37-3.52,14.12-.53,17.92,7.94.84,1.88,1.72,3.75,4.47,5.43,2.63-10.21,7.22-20.43,7.23-30.64,0-7.42-6.09-14.82-9.4-22.26-2.83-6.37-6.2-12.59-8.16-19.22-1.46-4.96,2.13-8.19,6.71-10.27,4.7-2.14,8.45-.72,11.36,2.82,3.52,4.28,6.55,8.97,9.83,13.54,2.09-7.39,4.5-15.06,6.32-22.87.51-2.17-.16-5.06-1.28-7.07-4.69-8.42-9.69-16.68-14.7-24.92-4.55-7.49-1.91-17.81,5.58-21.26,4.41-2.03,11.56,1.87,15.28,8.38,1.29,2.25,2.5,4.55,3.9,7.11,5.16-5.68,7.36-22.01,4.21-27.4-4.84-8.27-9.74-16.5-14.6-24.75-4.05-6.87-2.27-15.46,3.91-19.02,5.37-3.09,12.41-.01,16.61,7.05,1.49,2.5,3.43,4.73,5.21,7.14,9.04-13.52,7.85-27.58-2.58-42.54-5.35-7.67-11.73-15.39-7.7-28.04,4.53-.57,11.24-3.49,15.55-1.42,4.89,2.35,7.63,9.16,12.04,15.01,1.11-6.82,2.75-12.81,2.94-18.84.44-13.63.23-27.29.17-40.94-.05-12.73,1.65-14.38,14.32-13.46,1.26.09,2.52.13,5.64.28.83,6.05,2.05,12.33,2.49,18.66,1.22,17.4-2.48,35.17,4.72,53.42,2.44-3.82,4.48-7.2,6.7-10.45,4.11-6.02,10.5-6.99,15.87-3.83,3.19,1.88,6,7.74,5.64,11.49-.47,4.84-4.08,9.47-6.7,13.98-3.11,5.34-7.44,10.13-9.67,15.78-1.69,4.28-1.63,9.62-1.06,14.34.72,5.94,2.76,11.73,4.68,19.34,2.72-4.53,4.68-7.51,6.35-10.65,3.48-6.55,9.74-9.08,16.09-6.32,4.37,1.9,6.62,10.4,3.85,16.08-3.78,7.75-7.22,15.8-12.1,22.83-5.31,7.65-4.52,15-1.98,22.89.99,3.09,2.05,6.15,2.97,8.91,4.24-4.19,8.17-9.03,13.07-12.52,2.38-1.69,7.21-2.1,9.76-.8,2.66,1.36,5.74,5.71,5.39,8.33-.71,5.44-3.19,10.79-5.64,15.83-3.23,6.65-6.55,13.42-10.96,19.29-2.97,3.95-2.25,7.11-1.14,10.93,1.77,6.11,3.43,12.24,5.56,19.89,2.98-4.76,4.98-8.39,7.41-11.71,3.14-4.29,7.86-6.98,12.77-5.01,5.27,2.11,8.95,7.09,7.35,13.14-1.35,5.1-4.22,9.86-6.82,14.55-3.76,6.76-8.3,13.12-11.58,20.09-.99,2.09,1.14,5.64,1.82,8.53,2.05,8.67,4.09,17.34,6.67,28.3,2.53-3.75,4.25-5.79,5.4-8.11,3.27-6.61,12.71-11,17.98-8.14,5.1,2.77,6.92,11.59,3.39,18.37-3.67,7.05-7.28,14.21-11.79,20.71-4.15,5.98-5.74,11.73-3.44,18.76,2.29,7.01,3.99,14.22,6.31,22.63,4.48-6.84,7.91-12.58,11.85-17.94,3.08-4.2,12.58-5.99,16.52-3.14,5.19,3.76,4.7,9.49,2.69,14.38-2.61,6.36-6.43,12.23-9.8,18.27-3.71,6.68-7.6,13.26-11.16,20.02-.66,1.25-.38,3.22-.02,4.74,1.72,7.42,3.61,14.8,5.94,24.23,4.36-7.18,8-12.6,11.05-18.33,2.97-5.58,7.77-7.53,13.13-5.94,5.12,1.52,10.31,4.8,8.42,11.6-1.53,5.5-3.79,10.88-6.43,15.96-4.34,8.34-9.08,16.49-13.96,24.53-3.18,5.24-3.18,10.05-.65,15.62,2.1,4.62,2.93,9.82,4.69,16.09,5.7-9.79,10.32-18.8,16.01-27.08,3.25-4.72,3.64-13.33,12.71-11.97,3.56.53,9.09.55,10.11,2.6,1.94,3.92,3.15,10.03,1.39,13.63-6.3,12.88-13.98,25.07-21.1,37.55-2.33,4.09-4.54,8.24-6.89,12.54,49.63,33.71,84.4,78.93,103.17,137.54,11.79-20.5,23.03-40.03,34.24-59.58,10.3-17.97,20.44-36.03,30.89-53.91,5.58-9.55,14.09-11.96,25.24-7.52-3.47-13.29-6.61-25.31-9.73-37.33-1.82-7,.81-13.07,6.3-14.63,7.87-2.24,14.33,1.26,16.35,8.96,3.95,15.08,7.81,30.19,11.77,45.26.42,1.59,1.32,3.06,2.48,5.67,6.96-11.92,13.17-23.08,19.98-33.86,2.05-3.24,5.42-6.87,8.82-7.69,3.63-.88,10.94.48,11.5,2.39,1.56,5.27,2.14,12.07.04,16.94-4.18,9.7-10.41,18.51-15.99,28.02,22.22,6.17,43.67,12.28,65.2,18.06,27.47,7.38,54.99,14.54,82.55,21.57,1.55.4,4.46-.79,5.34-2.15,3.93-6.07,7.66-12.32,10.86-18.8,2.97-6.03,9.7-10.13,14.98-8.24,6.64,2.37,9.95,8.45,7.27,15.66-2.66,7.15-6.55,13.83-9.9,20.72,5.54,4.53,9.93,3.04,13.25-2.74,3.49-6.08,6.83-12.24,10.08-18.44,2.19-4.18,10.75-8.01,14.81-6.4,6.22,2.46,9.35,11.14,5.86,18.14-3.15,6.34-7.16,12.25-11.27,19.15,15.58,3.96,30.69,7.98,45.92,11.46,1.87.43,4.82-1.49,6.52-3.11,11.88-11.35,23.36-23.13,35.39-34.32,7.14-6.64,14.34-6.36,18.67-.33,5.08,7.09,3.07,12.6-4.31,19.05-9.04,7.9-17.01,17.02-26.69,26.88,7.94,2.34,15.13,4.53,22.37,6.55,4.06,1.14,8.22,1.93,12.3,2.99,6.68,1.74,9.13,5.89,8.27,12.85-.89,7.15-4.27,10.42-11.68,8.74-14.8-3.37-29.78-6.06-44.36-10.16-10.83-3.04-20.9-2.2-31.63.3-11.06,2.57-22.61,3.01-33.9,4.65-16.67,2.41-33.29,5.16-49.96,7.57-15.49,2.24-31.02,4.13-46.51,6.38-19.65,2.86-39.25,6.03-58.9,8.88-9.61,1.39-19.28,2.37-29.34,3.59,1.78,7.49,3.42,14.45,5.08,21.4,1.89,7.94-.19,12.68-6.25,14.27-6.79,1.78-14.1-1.98-16.14-8.41-1.2-3.78-2.3-7.6-3.29-11.44-.92-3.58-1.64-7.22-2.72-12.08-3.41.6-6.91,1.21-10.41,1.82.63,3.56,1.36,7.1,1.86,10.68.71,5.18,1.54,10.36,1.78,15.57.28,6.01-3.85,9.21-8.98,10.13-5.58,1-10.42-1.71-12.35-7.11-2.33-6.51-4.03-13.31-5.36-20.1-1-5.12-3.54-6.63-8.4-5.84-24.77,4.02-49.55,7.97-74.34,11.88-4.35.69-8.74,1.06-13.56,1.64,0,21.51,1.53,42.36-.44,62.87-1.92,19.99-7.43,39.64-11.45,59.9.93-.44,3.13-.96,4.57-2.29,6.3-5.85,17.51-7.62,22.77-3.65,5.8,4.37,4.65,9.79,1.82,17.32,9.61-5.74,17.7-10.32,25.51-15.32,4.77-3.05,13.68-2.6,17.48,1.48,3.26,3.5,2.67,11.41-1.17,16.04-1.09,1.31-2.05,2.72-3.03,4.03,9.21,4.38,16.57-.04,24.03-5.22,4.17-2.9,9.13-4.64,13.46-7.34,5.98-3.72,11.79-2.54,15.19,2.48,1.94,2.87.37,8.17.21,12.37-.05,1.22-.67,2.41-1.02,3.61,10.78,4.71,17.62-3.69,25.73-7.57,4.2-2,7.83-5.51,12.18-6.78,5.26-1.53,11.33-3.86,15.91,2.17,3.77,4.96,2.83,12.25-2.48,18.23,10.94,1.91,12.98.49,26.46-7.57,8.09-4.84,15.53-13.49,27.82-8.79,5.18,6.66,8.77,14.12-2.6,21.82,12.88,2.94,22.86,3.63,32.54-4.17,6.24-5.03,13.93-8.47,21.36-11.73,5.7-2.5,11.36-1.35,14.86,4.65,2.76,4.73.56,12.03-4.5,15.55-.97.68-1.95,1.35-2.92,2.02.31.81.61,1.63.92,2.44,5.94-2.06,12.13-3.61,17.76-6.31,6.45-3.1,12.42-7.2,18.57-10.92,5.39-3.26,10.42-3.15,14.99,1.48,4.77,4.84,3.69,9.93.53,15.06-.9,1.46-1.92,2.84-3,4.44,13.37,3.87,24.99.91,35.8-6.98,3.75-2.74,7.88-5.55,12.26-6.7,8.31-2.17,18.16,1.35,15.61,17.36,12.75,1.4,24.55.41,34.76-8.96,3.38-3.1,8.67-4.8,13.36-5.65,10.83-1.98,11.71-.75,13.23,14.68,6.28.32,12.71.76,19.15.95,5.77.17,7.37,4.03,8.02,8.69.57,4.01,1.03,8.02-4.52,9.29-4.94,1.13-9.77,3.68-14.69,3.76-20.38.35-40.77-.01-61.15-.06-2.22,0-4.44.37-6.34.54-.77,3.36-1.12,6.32-2.14,9.03-2.88,7.7-8.91,10.13-16.32,6.52-5.08-2.47-10.32-4.86-14.82-8.19-7.82-5.77-15.53-8.64-24.87-1.08,1.03,1.64,3.19,4.01,4.05,6.79.95,3.04,1.49,6.68.66,9.62-.44,1.54-4.09,2.6-6.46,3.11-10.38,2.24-18.71-2.87-26.99-7.99-7.72-4.77-15.84-5.7-24.26-2.6,4.33,3.98,8.94,7.76,12.99,12.06,4.37,4.64,1.76,9.97-1.9,12.47-3.41,2.31-9.61,3.64-13.11,2.09-9.67-4.3-18.6-10.3-27.78-15.7-5.32-3.13-10.99-3.12-26.94.6,2.5,1.33,4.4,2.25,6.21,3.32,7.74,4.54,9.27,10.66,5.04,18.76-2.98,5.7-8.56,5.25-12.38,3.47-10.41-4.85-20.61-10.39-30.13-16.8-5.58-3.75-10.5-3.43-15.85-2.18ZM718.44,716.69c-1.31-.33-2.02-.68-2.74-.68-70.77.01-141.54,0-212.31.32-2.16,0-5.96,3.15-6.19,5.15-1.01,8.88-1.49,17.89-1.19,26.82.26,7.94,1.9,15.82,2.76,23.74,2.26,20.84,7.95,40.71,16.19,59.96,1.9,4.45,4.36,5.56,8.96,5.56,137.51-.13,275.02-.17,412.53.06,6.8.01,9.52-3.21,11.31-8.48,2.69-7.88,5.29-15.8,7.6-23.8,8.39-29.03,11.59-58.5,7.27-89-1.66-.15-3.12-.39-4.58-.39-66.98.03-133.97.08-200.95.15q-14.77.01-15.71,14.3c-.03.5-.28.99-.28,1.48-.02,16.24-.01,32.48-.01,48.76,9.8.71,18.55,1.16,27.27,2.03,6.94.7,10.56,5.38,9.47,12.6-.87,5.74-3.96,9.02-10.69,8.93-23.76-.32-47.52-.12-71.28-.13-8.09,0-14.02-4.37-13.33-10.6.82-7.42,5.04-12.93,13.82-12.23,7.21.57,14.51.12,22.09.12v-64.67ZM622.83,508.17c6.19-2.69,11.25-4.64,16.05-7.1,1.72-.88,3.4-2.74,4.09-4.54,2.2-5.78,4.06-11.69,5.8-17.63,9.42-32.03,18.7-64.11,28.15-96.13,8.7-29.53,17.47-59.03,26.36-88.51,5.72-18.95,11.64-37.84,17.64-56.71,1.4-4.39,3.84-8.08,9.33-8.08,5.93,0,8.16,4,9.64,8.78,10.16,32.88,20.44,65.72,30.38,98.67,7.21,23.9,13.88,47.96,20.95,71.9,7.14,24.18,14.67,48.25,21.66,72.47,3.64,12.59,7.06,24.88,24.61,24.78-35.5-132.42-70.98-264.78-106.47-397.13-.44.09-.88.17-1.33.26-35.48,132.46-70.96,264.93-106.87,398.96ZM200.58,897.13c3.57,1.41,6.14,2.95,8.89,3.43,17.14,3.03,34.3,5.94,51.48,8.67,19.12,3.04,38.28,5.79,57.41,8.75,20.78,3.21,41.52,6.67,62.33,9.71,8.91,1.3,17.96,1.68,26.92,2.7,16.69,1.9,33.33,4.2,50.04,5.88,14.08,1.41,28.23,2.18,42.34,3.23,6.99.52,13.98,1.05,20.98,1.55,15.59,1.11,31.17,2.21,46.76,3.32.28-.71.56-1.41.83-2.12-26.68-22.08-48.53-48.11-64.96-78.68-101.02,11.19-201.63,22.33-303.03,33.56ZM890.63,943.3c3.44.17,4.92.36,6.38.29,19.51-.99,39.03-1.88,58.52-3.08,12.45-.77,24.89-1.8,37.29-3.09,17.02-1.77,34-3.96,51.02-5.84,6.72-.74,13.52-.81,20.2-1.74,24.34-3.38,48.64-7.07,72.99-10.46,10.81-1.5,21.76-2.08,32.49-3.93,19.83-3.43,39.57-7.44,59.32-11.32,10.08-1.98,20.11-4.2,30.16-6.32-.06-.36-.12-.71-.17-1.07-100.4-10.98-200.8-21.95-301.55-32.97-16.63,30.09-37.88,56.76-66.64,79.53ZM734.18,508.92v133.56c28.76-28.62,60.76-46.09,101.11-45.44,39.71.64,72.8,17,103.95,42.69-33.41-75.83-123.29-133.16-205.06-130.82ZM680.06,939.03h109.29c-9.32-7.67-17.36-13.82-24.85-20.58-7.44-6.72-7-14.25.89-20.5,5.43-4.3,11.17-8.22,16.91-12.12,6.87-4.67,13.89-9.14,22.02-14.48h-138.98c10.16,6.86,19.31,13.06,28.48,19.22,4.26,2.86,8.87,5.28,12.78,8.55,5.72,4.79,2.69,15.88-4.99,21.75-7.02,5.36-13.55,11.37-21.54,18.15ZM374.74,625.82c-1.48-.29-2.44-.71-3.36-.63-10.85.94-21.69,2.19-32.55,2.91-17.49,1.16-35,1.95-52.49,3-7.26.44-14.5,1.11-21.74,1.74-16.36,1.43-32.71,3.02-49.08,4.33-14.54,1.16-29.11,2.01-43.67,3,.02.42.03.84.05,1.26,63.64,9.15,127.28,18.3,191.29,27.51,3.85-14.36,7.66-28.59,11.55-43.11ZM1287.47,641.5c.07-.51.14-1.01.21-1.52-67.1-5-134.19-10-202.02-15.05,4.17,15.16,8.03,29.19,12.08,43.93,63.47-9.15,126.6-18.25,189.73-27.36ZM468.66,684.16c-19.07-32.94-38.18-65.95-58.08-100.32-8.19,30.36-15.92,59.02-23.78,88.12,27.12,4.04,53.88,8.03,81.85,12.2ZM1073.99,672.14c-7.94-29.72-15.59-58.33-23.64-88.44-19.61,34.04-38.54,66.91-57.74,100.24,27.74-4.02,54.14-7.85,81.39-11.8Z"/>
    <path class="cls-1" d="M855.25,744.95c17.41,0,34.81-.06,52.22.02,9.79.04,13.06,2.77,13.09,10.51.03,7.11-5.68,12.19-13.88,12.19-33.8.03-67.61.04-101.41,0-10.66-.02-16.38-7.83-12.06-17.1,1.16-2.48,4.95-5.2,7.59-5.27,18.14-.46,36.29-.24,54.44-.24v-.11Z"/>
    <path class="cls-1" d="M605.64,744.95c17.41,0,34.83.34,52.23-.15,7.58-.22,9.68,4.01,10.59,9.87.94,6.02-1.31,10.59-7.51,12.35-2.12.6-4.45.65-6.68.66-32.8.04-65.61.04-98.41.02-13.18,0-17.93-6.49-12.52-18.42,1.11-2.46,6.58-4.05,10.08-4.13,17.4-.41,34.82-.19,52.23-.19Z"/>
    <path class="cls-1" d="M435.08,652.17c-.11,10.15-4.26,15.23-13.31,14.83-8.07-.36-14.82-4.59-14.01-15.45.59-7.9,5.38-12.93,13.27-12.75,9.15.21,14.14,4.96,14.05,13.37Z"/>
    <circle class="cls-1" cx="1039.66" cy="653.16" r="14.83"/>
  </g>
</svg>