<?xml version="1.0" encoding="UTF-8"?>
<svg id="_图层_2" data-name="图层 2" xmlns="http://www.w3.org/2000/svg" viewBox="0 0 124.43 28.84">
  <defs>
    <style>
      .cls-1 {
        fill: #fff;
        stroke-width: 0px;
      }
    </style>
  </defs>
  <g id="_图层_1-2" data-name="图层 1">
    <g>
      <path class="cls-1" d="M27.88,3.46v21.83c0,1.4-1.47,2.32-2.73,1.71L.53,15.08c-.73-.35-.71-1.4.04-1.72L26.09,2.29c.84-.37,1.79.25,1.79,1.17Z"/>
      <path class="cls-1" d="M96.55,3.89v21.83c0,1.4,1.47,2.32,2.73,1.71l24.62-11.92c.73-.35.71-1.4-.04-1.72l-25.52-11.07c-.84-.37-1.79.25-1.79,1.17Z"/>
      <polygon class="cls-1" points="30.77 19.02 61.53 28.09 30.77 28.09 30.77 19.02"/>
      <polygon class="cls-1" points="93.7 9.07 62.94 0 93.7 0 93.7 9.07"/>
      <rect class="cls-1" x="30.58" y="14.26" width="30.95" height="1.2"/>
      <rect class="cls-1" x="62.94" y="11.32" width="30.95" height="1.2"/>
      <polygon class="cls-1" points="41.83 11.32 61.53 3.68 61.53 11.32 41.83 11.32"/>
      <polygon class="cls-1" points="93.23 14.26 63.88 25.65 63.88 14.26 93.23 14.26"/>
      <polygon class="cls-1" points="34.49 11.49 32.72 11.35 61.23 .2 61.53 .94 34.49 11.49"/>
      <polygon class="cls-1" points="90.89 17.6 93 17.6 64.13 28.84 63.84 28.09 90.89 17.6"/>
    </g>
  </g>
</svg>