<?xml version="1.0" encoding="UTF-8"?>
<svg id="_图层_2" data-name="图层 2" xmlns="http://www.w3.org/2000/svg" viewBox="0 0 113.56 48.25">
  <defs>
    <style>
      .cls-1 {
        fill: #fff;
        stroke-width: 0px;
      }
    </style>
  </defs>
  <g id="_图层_1-2" data-name="图层 1">
    <g>
      <rect class="cls-1" width="18.27" height="47.72" rx="4.22" ry="4.22"/>
      <rect class="cls-1" x="95.29" width="18.27" height="47.72" rx="4.22" ry="4.22"/>
      <path class="cls-1" d="M56.78,28.81c-12.6,0-23.24,8.2-26.67,19.43h53.33c-3.43-11.24-14.07-19.43-26.67-19.43ZM56.78,44.69c-3.4,0-6.16-2.76-6.16-6.16s2.76-6.16,6.16-6.16,6.16,2.76,6.16,6.16-2.76,6.16-6.16,6.16Z"/>
      <path class="cls-1" d="M81.53,10.04c-3.13-2.2-6.22-3.58-10-4.16-.2-.03-.4-.06-.6-.09-2.68-.39-5.38-.67-8-1.36-.91-.24-1.8-.55-2.63-.99-.71-.38-1.33-.92-2.1-1.2-.86-.32-1.5.1-2.2.57-1.19.8-2.26,1.25-3.68,1.62-2.62.69-5.32.97-8,1.36-.2.03-.4.06-.6.09-3.78.58-6.86,1.96-10,4.16-11.22,7.89-12.76,21.44-11.7,34.12.05.63.08,3.14,1.06,3.28.77.11,1.36-1.37,1.61-1.87,1.33-2.73,2.29-5.63,3.99-8.16,1.52-2.27,3.36-4.32,5.34-6.21,3.56-3.4,7.4-6.49,11.08-9.75,3.44-3.04,6.88-6.03,9.22-10.04.55-.95,1.07-1.95,1.95-2.65.6-.48,1.16-.54,1.37-1.36.21.82.77.89,1.37,1.36.87.7,1.39,1.7,1.95,2.65,2.33,4.02,5.78,7,9.22,10.04,3.68,3.26,7.52,6.35,11.08,9.75,1.98,1.89,3.81,3.93,5.34,6.21,1.7,2.53,2.66,5.43,3.99,8.16.25.5.84,1.98,1.61,1.87.98-.14,1.01-2.65,1.06-3.28,1.05-12.68-.49-26.23-11.7-34.12Z"/>
    </g>
  </g>
</svg>