<?xml version="1.0" encoding="UTF-8"?>
<svg id="_图层_2" data-name="图层 2" xmlns="http://www.w3.org/2000/svg" viewBox="0 0 107.46 36.9">
  <defs>
    <style>
      .cls-1 {
        fill: #fff;
        stroke-width: 0px;
      }
    </style>
  </defs>
  <g id="_图层_1-2" data-name="图层 1">
    <g>
      <rect class="cls-1" width="22.6" height="36.9" rx="2.33" ry="2.33"/>
      <rect class="cls-1" x="84.85" width="22.6" height="36.9" rx="2.33" ry="2.33"/>
      <path class="cls-1" d="M80.07,16.88c-3.76-2.18-7.61-4.19-11.33-6.45-3.36-2.04-6.72-4.08-10.08-6.13-.32-.19-.64-.39-.95-.58-1.28-.78-2.45-1.64-4.09-1.28-1.26.28-2.49,1.26-3.61,1.9-1.42.8-2.85,1.61-4.27,2.41-4.48,2.52-8.95,5.05-13.43,7.57-1.68.95-3.39,1.84-5.09,2.76-1.22.66-2.3,1.6-.69,2.6,0,0,25.5,15.41,25.52,15.43.46.28,1.05.45,1.58.53,1.22.19,2.09-.56,3.08-1.14,1.75-1.03,3.53-1.99,5.27-3.01,2.05-1.21,4.11-2.41,6.16-3.62,4.27-2.53,8.58-5,12.87-7.5,1.96-1.14.47-2.67-.93-3.48ZM56.45,25.51s-1.88.92-4.02,0l-19.15-6.7s17.64-7.41,20.72-7.41,22.35,7.41,22.35,7.41l-19.9,6.7Z"/>
      <polygon class="cls-1" points="52.24 15.52 52.24 22.42 39.06 19.01 52.24 15.52"/>
      <polygon class="cls-1" points="55.86 15.52 55.86 22.42 69.04 19.01 55.86 15.52"/>
    </g>
  </g>
</svg>