<?xml version="1.0" encoding="UTF-8"?>
<svg id="_图层_2" data-name="图层 2" xmlns="http://www.w3.org/2000/svg" viewBox="0 0 143.47 44.62">
  <defs>
    <style>
      .cls-1 {
        fill: #fff;
        stroke-width: 0px;
      }
    </style>
  </defs>
  <g id="_图层_1-2" data-name="图层 1">
    <g id="_图层_1-2" data-name=" 图层 1-2">
      <g>
        <path class="cls-1" d="M1.93,2.28c.24-.33.53-.68.85-1.04l-.85,1.04Z"/>
        <path class="cls-1" d="M143.1,13.67s-.1-.07-.16-.1c-.49-.28-1.14-.31-1.69-.39-.62-.09-1.25-.14-1.87-.16-.85-.02-1.74.17-2.4.76-.9.8-1.38,1.89-2.61,2.3-.67.23-1.4.16-2.11.09-1.5-.15-3.1-.29-4.45-1.01-1.4-.75-2.5-1.99-3.8-2.89-2.07-1.42-4.21-2.73-6.41-3.94-4.4-2.43-9.02-4.45-13.74-6.15-1.48-.53-2.97-1.03-4.47-1.5-.74-.23-3.49-1.52-2.84.31,1.03,2.87,3.52,4.64,5.33,6.95,3.97,5.09-4.62,5.93-7.73,6.23-4.82.47-9.99,1.34-14.78.7-.51-.07-1.07-.18-1.65-.34.46.17.88.31,1.25.42-.44-.09-.88-.25-1.29-.43-2.75-.74-5.99-2.44-7.16-4.74-.21.31-2.36,3.19-2.43,3.15l2.47,1.52c.11.07.22.14.34.21.4.25.8.5,1.17.8.21.18.37.4.55.63-6.76,1.23-23.23.31-39.41-1.84-2.03-.27-4.05-.6-6.06-.97-1.94-.36-3.88-.76-5.8-1.2-1.8-.41-3.59-.85-5.38-1.32-1.6-.42-3.19-.87-4.78-1.33-1.34-.39-2.68-.8-4.01-1.23-.79-.25-1.57-.52-2.35-.78-.75-.26-1.5-.6-2.29-.74-.12-.02-.34-.09-.72-.16.07.09.29.26.38.33.15.12.29.25.45.36.29.23.6.44.91.64.32.2.65.38.99.53.36.17.7.38,1.07.53.87.44,1.75.86,2.64,1.25,1.77.79,3.58,1.51,5.41,2.16,1.83.64,3.69,1.22,5.55,1.74,1.87.52,3.76.98,5.66,1.39,1.9.42,3.82.79,5.74,1.12.56.1,1.12.19,1.68.28,21.7,3.56,44.01,3.65,65.88,1.7.11-.01.22-.02.34-.03,1.35-.12,2.69-.25,4.04-.39.25-.02.5,0,.76,0l.06.29c.09.44-9.66,3.18-10.45,3.38-10.29,2.58-20.98,3.02-31.54,2.73-10.48-.28-21.07-.85-31.51-1.77-1.87-.17-3.75-.37-5.61-.66-3.44-.52-6.88-1.14-10.2-2.2-3.26-1.03-6.35-2.51-9.16-4.45-.85-.59-1.68-1.2-2.5-1.82-.38-.29-.76-.57-1.15-.85-.21-.15-.43-.31-.65-.46-.15-.11-.52-.26-.61-.42.31.49.78,1,.96,1.21.27.31.55.63.82.95.3.32,9.46,10.05,11.33,10.96l1.23.97s-8.86,6.39-12.7,10.72l-.85,1.04c.37-.23,1.17-.63,1.52-.8.6-.31,1.21-.61,1.82-.91,1.18-.57,2.37-1.1,3.57-1.6,2.41-1,4.88-1.87,7.39-2.6,5.09-1.49,10.2-2.86,15.47-3.64.55-.08,1.09-.15,1.63-.23h.02s.02,0,.02,0c10.88-1.39,21.91-1.3,32.83-.41,12.62,1.04,25.43,2.69,36.11,9.93-1.83-1.24-5.1-1.78-7.23-2.33-2.61-.67-5.24-1.26-7.89-1.78-16.01-3.13-32.54-3.59-48.72-1.56-9.15,1.15-18.42,2.95-26.78,6.97-2.49,1.2-4.89,2.6-7.11,4.24-.25.18-.84.79-1.02,1.06.26.01,1.2-.5,1.41-.6,6.74-3.26,14.35-4.77,21.66-6.11,21.56-3.98,43.94-3.06,65.47.73.95.17,8.7,1.25,7.88,2.36-.57.76-1.21,1.46-1.84,2.17-.31.36-.63.71-.92,1.08-.06.07-.59.91-.58.91.43.05,1.74-.24,2.13-.35,5.21-1.55,9.21-2.7,14.74-4.65,1.21-.42,3.23-1.25,4.4-1.76.58-.25,1.16-.51,1.74-.78.11-.06,1.46-.58,1.46-.67,2.19-.97,4.53-1.9,6.89-2.51,1.33-.34,5.05-.22,5.45-1.96.44-1.88-.24-4.49,1.69-5.67,1.27-.78,2.87-.71,4.19-1.36.64-.32,1.18-.79,1.54-1.42.8-1.41,1.39-2.94,1.97-4.46.29-.76.57-1.52.88-2.28.29-.71.76-1.46.85-2.22.04-.35-.1-.66-.36-.87h0ZM101.27,4.54c-.17-.22-.33-.45-.45-.71,1.3.28,2.43.84,3.62,1.4,1.23.58,2.47,1.19,3.61,1.94,2.35,1.54,4.25,3.53,6.31,5.4.11.1.2.26.25.41-.53.37-1.36.51-1.98.71-1.97.63-3.83-.71-5.1-2.11-1.34-1.47-2.4-2.86-3.77-4.3-.82-.86-1.74-1.82-2.48-2.75h0ZM101.32,40.97c.72-1.24,1.31-2.46,2.26-3.56,1.49-1.72,3.49-3.14,5.55-4.1,2.11-.98,4.53-1.33,6.67-.24.85.44,1.71,1.07,2.28,1.87,0,0-16.85,6.19-16.75,6.04h0ZM118.06,18.38c.03.44.01.9,0,1.01,0,.07-.02.14-.02.21,0,0-.22,11.92-.22,11.93,0,.02-.76-.15-.79-.16-.66-.2-1.27-.57-1.78-1.02-2.13-1.89-2.78-5.34-2.2-8.03.45-2.09,1.56-4.34,3.86-4.8.1-.02,1.17-.14,1.17-.08l-.02.94h0ZM130.62,29.12c-.03.33-.1.64-.23.95-.47,1.1-1.64,1.22-2.67,1.43-2.09.43-4.22.52-6.34.73-.49.05-1.1-.09-1.29-.59-.21-.58-.01-1.39.05-1.98.09-.8.15-1.62.34-2.4.26-1.27,1.8-1.33,2.84-1.28,1.52.07,3.05.12,4.57.15,1.11.02,2.74-.22,2.75,1.33,0,.54.04,1.12-.01,1.68h0ZM140.89,15.75c-.97,2.19-1.83,4.43-2.89,6.57-.32.64-.93,1.04-1.6,1.25-.55.17-1.12.23-1.7.26-2.73.2-5.44-.02-8.16-.02-1.64,0-3.28-.13-4.92-.17-.85-.02-1.3-.48-1.34-1.3-.05-.95-.1-1.92-.06-2.87.1-1.92.44-2.13,2.52-1.89-.12.11-.31.23-.42.34-.72.42-1.2,1.17-1.2,2.03,0,1.31,1.1,2.38,2.46,2.38s2.46-1.06,2.46-2.38c0-.87-.48-1.62-1.19-2.03-.07-.09-.12-.18-.2-.26.22-.26.45-.53.53-.61.59.18,1.17.44,1.78.54.74.12,1.49.17,2.23.25,1.54.16,3.08.29,4.62.39,1.12.07,1.89-.21,2.79-.87.85-.63,1.55-1.47,2.38-2.14.34-.28.84-.49,1.27-.5.58,0,.96.29.64,1.02h0Z"/>
      </g>
    </g>
  </g>
</svg>