<?xml version="1.0" encoding="UTF-8"?>
<svg id="_图层_2" data-name="图层 2" xmlns="http://www.w3.org/2000/svg" viewBox="0 0 126.23 53.26">
  <defs>
    <style>
      .cls-1 {
        fill: #fff;
        stroke-width: 0px;
      }
    </style>
  </defs>
  <g id="_图层_1-2" data-name="图层 1">
    <path class="cls-1" d="M126.15,8.07c-.57-4.51-4.29-7.76-8.31-7.25-3.81.48-6.51,4.16-6.3,8.39-3.8,3.56-19.3,15.76-42.22,3.02,0,0-10.86-5.76-14.5-9.77,0,0-.74-.98,0-1.72l.74-.74s-2.66.13-2.25,2.22c.41,2.09,2.82,4.41,8.37,8.51,5.55,4.1,13.17,7.21,13.25,7.86s-.98,1.72-4.18.49c-3.2-1.23-20.81-7.54-28.84-14.91,0,0-2.32-2.04.9-3.24,0,0-2.62-.53-3.85,1.43-1.23,1.97,9.67,9.87,17.49,13.19,0,0,8.52,3.6,7.7,5.24,0,0,.25,1.39-3.19,1.72-10.31.98-20.33,1.79-30.66.88-7.98-.71-15.98-1.5-23.91-2.65-2.04-.3-4.34-.45-6.27-1.21,0,0-1.26,1.73,4.02,3.08,5.28,1.35,52.73,10.19,57.51,12.77,0,0,.9,1.23-1.04,2.12-1.94.89-4.98,2.89-3.69,5.47s9.44,7.37,10.34,7.62c.9.25,3.72,1.23,3.85,2.09.12.86,7.13.49,7.13.49,0,0-4.06-.49-3.93-2.7s-.25-2.21-1.11-3.44c-.27-.39-.56-.73-.82-1.02-.59-.65-.68-1.61-.22-2.36l2.84-4.63c.38-.63,1.1-.96,1.83-.86,4.27.63,19.41,1.34,32.87-16.81,0,0,2.97-4.42,4.2-4.92.42-.17.99-.25,1.55-.28.22.14.45.26.69.37-.04,1.91-.44,8.15-3.62,14.09,0,0,0,2.09-.98,3.32-.98,1.23-1.6,3.07-.25,3.32,1.35.25,2.09.12,2.52-2.83,0,0,4.12-5.79,4.67-9.41.48-3.16-.39-5.2,1.55-7.88,3.95-.58,6.68-4.61,6.11-9.07ZM66.78,46.2c-.16,1.97-1.38,1.47-2.53.82s-2.55-2.94-2.55-2.94c0,0-.38-.68,0-1.16,0,0,2.21-3.03,3.2-2.21s2.05,3.52,1.88,5.49Z"/>
  </g>
</svg>