<?xml version="1.0" encoding="UTF-8"?>
<svg id="_图层_2" data-name="图层 2" xmlns="http://www.w3.org/2000/svg" viewBox="0 0 79.25 55.84">
  <defs>
    <style>
      .cls-1 {
        fill: #fff;
        stroke-width: 0px;
      }
    </style>
  </defs>
  <g id="_图层_1-2" data-name="图层 1">
    <g id="_图层_1-2" data-name=" 图层 1-2">
      <path class="cls-1" d="M14.62,1.38s-6.21,21.8-1.24,32.7c2.49,5.47,7.6,10.34,13.66,11.39,3.14.55,6.32-.09,9.03-1.77,4.94-3.06,7.1-8.98,8.04-14.47.93-5.49.73-11.14.73-16.68,0-6.07,0-10.49,1.79-12.56-.49.56.16,3.61.23,4.26.26,2.53.72,5.11,1.5,7.54,2.39,7.44,5.91,14.38,6.96,22.27.02.17,1.02-.65,1.05-.68,1.13-1.31,1.25-3.51,1.34-5.13.18-3.43-.36-6.91-.76-10.31C56.24,11.95,55.33,5.94,54.21,0,54.21,0,60.42,11.18,63.73,18.07c3.31,6.9,3.59,10.39,3.59,10.39,0,0,4.69-3.49-2.62-19.91,0,0-4.14-8.55-4.14-8.55,8.13,5.83,15.71,14.85,18.1,24.73,2.47,10.19-3.14,18.9-11.92,23.61-8.35,4.48-17.75,6.96-27.21,7.39C15.44,56.85,2.75,48.71.4,34.08-1.94,19.45,6.34,8.69,14.62,1.38Z"/>
      <ellipse class="cls-1" cx="29.01" cy="19.78" rx="4.65" ry="8.14"/>
    </g>
  </g>
</svg>