<?xml version="1.0" encoding="UTF-8"?>
<svg id="_图层_2" data-name="图层 2" xmlns="http://www.w3.org/2000/svg" viewBox="0 0 114.95 78.94">
  <defs>
    <style>
      .cls-1 {
        fill: #fff;
        stroke-width: 0px;
      }
    </style>
  </defs>
  <g id="_图层_1-2" data-name="图层 1">
    <g id="_图层_1-2" data-name=" 图层 1-2">
      <path class="cls-1" d="M91.18,73.92c.18.33.44.6.48.91.08.58-.4,1.25-1.19.9-.48-.21-.95-.46-1.38-.76-.56-.38-1.1-.68-1.87-.37.22.12.48.17.57.33.18.32.35.69.38,1.05.01.2-.24.55-.43.6-.32.08-.73.06-1.03-.09-.71-.35-1.4-.75-2.05-1.21-.54-.39-1.06-.32-1.78-.12.25.15.41.22.53.32.3.24.67.44.84.76.11.21.01.77-.14.84-.38.18-.91.33-1.26.19-.8-.32-1.53-.8-2.26-1.27-.62-.4-1.22-.68-1.98-.41-.17.06-.38,0-.62.13.29.16.59.3.87.48.57.36.65.8.29,1.46-.16.29-.84.4-1.25.17-.71-.4-1.42-.8-2.1-1.24-.78-.5-1.6-.82-2.62-.57.33.23.63.44.95.64.45.28.48.73.3,1.12-.11.24-.46.5-.73.52-.31.03-.66-.16-.95-.32-.83-.45-1.65-.94-2.47-1.42-.65-.39-.65-.4-1.61-.32.37.42.73.79,1.06,1.19.31.38.31,1.12.03,1.37-.3.27-1.12.18-1.45-.16-.53-.55-1.06-1.1-1.58-1.65-.25-.26-.47-.32-.87-.14-1.37.65-2.82,1.02-4.3,1.37-1.95.46-3.89.38-5.83.33-1.08-.02-2.15-.35-3.22-.56-.56-.11-1.12-.26-1.67-.46-.65-.23-1.27-.54-1.91-.78-.12-.05-.35.01-.45.11-.63.59-1.25,1.19-1.85,1.81-.31.33-1.01.39-1.38.07-.33-.28-.32-.86.02-1.22.38-.41.76-.82,1.16-1.26-.85-.24-1.51.12-2.19.53-.81.49-1.63.96-2.46,1.41-.49.26-.93.12-1.13-.3-.29-.6-.19-.94.37-1.26.29-.17.56-.38.93-.63-.86-.07-1.6-.12-2.32.37-.79.53-1.63,1.03-2.51,1.39-.96.39-1.44.13-1.37-.84.02-.24.27-.49.47-.67.25-.22.56-.38.88-.59-1.09-.23-2-.19-2.92.5-.73.55-1.66.84-2.54,1.16-.21.08-.65-.1-.79-.29-.22-.31-.29-.75.09-1.06.36-.28.75-.52,1.13-.78-1.02-.54-1.76.17-2.56.6-.48.26-.93.56-1.42.81-.46.24-.89.08-1.13-.35-.31-.55-.23-.91.26-1.25.17-.12.34-.25.5-.38-.68-.16-1.18,0-1.74.37-.47.31-1.01.52-1.53.75-.6.27-.94-.16-1.11-.59-.18-.45,0-.89.68-1.09-.58-.21-.89-.29-1.38.06-.78.55-1.68.95-2.58,1.3-.23.09-.73-.16-.91-.4-.29-.39-.13-.84.25-1.14.19-.16.43-.26.66-.39-.93-.48-1.32-.47-2.17.05-.59.36-1.18.71-1.78,1.05-.37.21-.76.29-1.17.04-.44-.27-.29-.7-.29-1.07,0-.15.19-.32.33-.44.21-.18.45-.32.69-.48-1.11-.56-1.89.07-2.71.59-.5.31-1.06.35-1.61.18-.3-.09-.33-.85-.1-1.24.1-.17.13-.37.19-.56-.2-.04-.4-.12-.6-.13-.84-.01-1.44.57-2.13.92-1.13.56-1.94.29-1.77-1.07-1.28,0-2.55,0-3.82,0-.74,0-1.47-.05-2.21-.08-.56-.02-.96-.42-.87-.97.07-.47.48-.67.91-.72.39-.05.79,0,1.18,0,.03-1.35.92-1.44,1.78-.96,1.43.8,1.43,1.15,3.2.93,0-.2,0-.39.03-.59.1-.89.63-1.15,1.44-.69.44.25.87.52,1.28.81.67.48,1.41.24,2.09.24-.12-.3-.3-.59-.35-.89-.05-.34-.09-.8.38-.88.37-.06.82-.06,1.15.09.64.3,1.21.75,1.85,1.08.27.14.63.13,1.03.21-.14-.22-.19-.39-.3-.44-.59-.29-.49-.74-.29-1.19.15-.34.85-.5,1.27-.29.64.32,1.35.59,1.86,1.06.72.67,1.42.16,2.09.26-.17-.4-.44-.74-.43-1.07.04-.83.54-1.01,1.4-.69.65.25,1.22.68,1.85.97.43.2.91.31,1.33.45-.11-.52-.26-.92-.25-1.31.01-.32.22-.54.67-.55.93-.02,1.58.55,2.26.98.48.3.88.31,1.39.26-.05-.18-.14-.34-.13-.48.02-.33-.02-.82.16-.94.27-.17.74-.17,1.07-.07.46.14.89.42,1.3.69.54.35,1.06.66,1.64.32-.15-.28-.41-.57-.45-.89-.1-.83.59-1.27,1.34-.87.77.41,1.52.88,2.24,1.29,0-.37-.08-.76.02-1.1.15-.53.59-.64,1.1-.39.43.21.86.41,1.35.64-1.14-3.16-1.55-6.38-1.12-9.77-2.46-.35-4.93-.71-7.46-1.07-.17.65-.33,1.27-.49,1.89-.12.45-.73.84-1.17.74-.44-.1-.69-.53-.6-1.06.08-.44.22-.88.27-1.32.02-.22-.1-.45-.15-.68-.24.13-.6.2-.69.39-.21.47-.29.99-.41,1.49-.12.54-.49.79-1.1.71-.48-.06-.74-.4-.67-.93.09-.6.23-1.18.36-1.89-.61-.09-1.29-.18-1.96-.28-1.27-.2-2.53-.42-3.8-.61-.86-.13-1.73-.22-2.59-.35-1.04-.15-2.07-.29-3.1-.46-.92-.14-1.83-.33-2.75-.46-.89-.12-1.79-.19-2.68-.28-.29-.03-.57-.07-.85-.14-1.48-.38-2.75.47-4.13.66-.49.07-.98.13-1.47.2-.54.08-.76-.19-.8-.69-.03-.45.35-.89.79-.99.84-.2,1.67-.45,2.69-.72-.3-.26-.49-.4-.65-.57-.57-.59-1.14-1.19-1.69-1.8-.11-.12-.23-.3-.22-.45.01-.32,0-.81.19-.93.35-.22.83-.32,1.22.09.61.64,1.24,1.28,1.87,1.9.38.37.79.72,1.2,1.07.09.08.27.13.38.1,1.16-.31,2.31-.65,3.52-.99-.26-.46-.51-.92-.76-1.38-.35-.64-.19-1.18.44-1.51.41-.21.84.01,1.17.6.28.49.56.97.85,1.45.21.35.31.37.98.17-.28-.6-.6-1.19-.81-1.81-.13-.37-.23-.83.34-1.04.53-.2.96-.16,1.27.37.26.46.55.9.78,1.37.2.41.45.61.92.47.67-.2,1.34-.41,2.02-.59,1.31-.36,2.63-.69,3.95-1.05,1.78-.48,3.55-.97,5.41-1.48-.4-.67-.77-1.33-1.17-1.96-.4-.64-.48-1.36.06-1.66.47-.25,1-.23,1.28.22.58.92,1.11,1.87,1.76,2.96.24-.87.44-1.59.64-2.31.19-.66.38-1.31.56-1.96.18-.64.71-.54,1.12-.44.24.06.51.43.55.69.06.34-.08.73-.17,1.08-.17.73-.37,1.45-.58,2.27.25-.06.38-.09.5-.11.8-.15,1.06,0,1.61,1,.39.7.78,1.39,1.18,2.08,1,1.74,2.01,3.47,3.01,5.21.23.4.48.8.8,1.34,1.53-4.57,4.19-8.16,8.13-10.81-.54-.94-1.09-1.88-1.64-2.82-.2-.34-.43-.66-.61-1.01-.26-.5-.11-1.19.37-1.39.44-.18.87-.07,1.16.4.53.87,1.09,1.71,1.65,2.6.5-1.16.74-2.27-.18-3.37-.42-.51-.71-1.14-1.02-1.74-.24-.46-.03-1.11.4-1.36.36-.2.95.03,1.23.48.26.43.52.86.84,1.4.2-.69.41-1.28.52-1.89.04-.24-.07-.55-.2-.78-.46-.84-.98-1.64-1.43-2.48-.22-.4-.32-.93.09-1.21.28-.19.85-.26,1.11-.1.37.24.58.74.85,1.14.09.13.17.28.33.56.26-.91.5-1.66.69-2.42.03-.14-.15-.34-.24-.51-.36-.67-.75-1.32-1.08-2-.33-.66-.21-1.09.3-1.33.58-.28,1.11-.04,1.41.62.07.15.14.3.35.43.21-.8.57-1.61.57-2.41,0-.58-.48-1.17-.74-1.75-.22-.5-.49-.99-.64-1.51-.11-.39.17-.64.53-.81.37-.17.67-.06.89.22.28.34.52.71.77,1.07.16-.58.35-1.19.5-1.8.04-.17-.01-.4-.1-.56-.37-.66-.76-1.31-1.16-1.96-.36-.59-.15-1.4.44-1.67.35-.16.91.15,1.2.66.1.18.2.36.31.56.41-.45.58-1.73.33-2.16-.38-.65-.77-1.3-1.15-1.95-.32-.54-.18-1.22.31-1.5.42-.24.98,0,1.31.55.12.2.27.37.41.56.71-1.06.62-2.17-.2-3.35-.42-.6-.92-1.21-.61-2.21.36-.04.88-.27,1.22-.11.38.18.6.72.95,1.18.09-.54.22-1.01.23-1.48.03-1.07.02-2.15.01-3.22,0-1,.13-1.13,1.13-1.06.1,0,.2.01.44.02.07.48.16.97.2,1.47.1,1.37-.2,2.77.37,4.2.19-.3.35-.57.53-.82.32-.47.83-.55,1.25-.3.25.15.47.61.44.9-.04.38-.32.75-.53,1.1-.24.42-.59.8-.76,1.24-.13.34-.13.76-.08,1.13.06.47.22.92.37,1.52.21-.36.37-.59.5-.84.27-.52.77-.71,1.27-.5.34.15.52.82.3,1.27-.3.61-.57,1.24-.95,1.8-.42.6-.36,1.18-.16,1.8.08.24.16.48.23.7.33-.33.64-.71,1.03-.99.19-.13.57-.17.77-.06.21.11.45.45.42.66-.06.43-.25.85-.44,1.25-.25.52-.52,1.06-.86,1.52-.23.31-.18.56-.09.86.14.48.27.96.44,1.57.23-.37.39-.66.58-.92.25-.34.62-.55,1.01-.39.41.17.7.56.58,1.03-.11.4-.33.78-.54,1.15-.3.53-.65,1.03-.91,1.58-.08.16.09.44.14.67.16.68.32,1.36.53,2.23.2-.3.33-.46.43-.64.26-.52,1-.87,1.42-.64.4.22.54.91.27,1.45-.29.55-.57,1.12-.93,1.63-.33.47-.45.92-.27,1.48.18.55.31,1.12.5,1.78.35-.54.62-.99.93-1.41.24-.33.99-.47,1.3-.25.41.3.37.75.21,1.13-.21.5-.51.96-.77,1.44-.29.53-.6,1.04-.88,1.58-.05.1-.03.25,0,.37.14.58.28,1.16.47,1.91.34-.57.63-.99.87-1.44.23-.44.61-.59,1.03-.47.4.12.81.38.66.91-.12.43-.3.86-.51,1.26-.34.66-.71,1.3-1.1,1.93-.25.41-.25.79-.05,1.23.17.36.23.77.37,1.27.45-.77.81-1.48,1.26-2.13.26-.37.29-1.05,1-.94.28.04.72.04.8.2.15.31.25.79.11,1.07-.5,1.01-1.1,1.97-1.66,2.96-.18.32-.36.65-.54.99,3.91,2.65,6.64,6.21,8.12,10.83.93-1.61,1.81-3.15,2.7-4.69.81-1.41,1.61-2.84,2.43-4.24.44-.75,1.11-.94,1.99-.59-.27-1.05-.52-1.99-.77-2.94-.14-.55.06-1.03.5-1.15.62-.18,1.13.1,1.29.71.31,1.19.61,2.38.93,3.56.03.13.1.24.2.45.55-.94,1.04-1.82,1.57-2.67.16-.26.43-.54.69-.61.29-.07.86.04.91.19.12.41.17.95,0,1.33-.33.76-.82,1.46-1.26,2.21,1.75.49,3.44.97,5.13,1.42,2.16.58,4.33,1.14,6.5,1.7.12.03.35-.06.42-.17.31-.48.6-.97.85-1.48.23-.47.76-.8,1.18-.65.52.19.78.67.57,1.23-.21.56-.52,1.09-.78,1.63.44.36.78.24,1.04-.22.27-.48.54-.96.79-1.45.17-.33.85-.63,1.17-.5.49.19.74.88.46,1.43-.25.5-.56.96-.89,1.51,1.23.31,2.42.63,3.61.9.15.03.38-.12.51-.24.94-.89,1.84-1.82,2.79-2.7.56-.52,1.13-.5,1.47-.03.4.56.24.99-.34,1.5-.71.62-1.34,1.34-2.1,2.12.62.18,1.19.36,1.76.52.32.09.65.15.97.24.53.14.72.46.65,1.01-.07.56-.34.82-.92.69-1.16-.27-2.34-.48-3.49-.8-.85-.24-1.65-.17-2.49.02-.87.2-1.78.24-2.67.37-1.31.19-2.62.41-3.93.6-1.22.18-2.44.33-3.66.5-1.55.23-3.09.47-4.64.7-.76.11-1.52.19-2.31.28.14.59.27,1.14.4,1.68.15.62-.01,1-.49,1.12-.53.14-1.11-.16-1.27-.66-.09-.3-.18-.6-.26-.9-.07-.28-.13-.57-.21-.95-.27.05-.54.1-.82.14.05.28.11.56.15.84.06.41.12.82.14,1.23.02.47-.3.72-.71.8-.44.08-.82-.13-.97-.56-.18-.51-.32-1.05-.42-1.58-.08-.4-.28-.52-.66-.46-1.95.32-3.9.63-5.85.94-.34.05-.69.08-1.07.13,0,1.69.12,3.33-.03,4.95-.15,1.57-.58,3.12-.9,4.71.07-.03.25-.08.36-.18.5-.46,1.38-.6,1.79-.29.46.34.37.77.14,1.36.76-.45,1.39-.81,2.01-1.21.38-.24,1.08-.2,1.38.12.26.28.21.9-.09,1.26-.09.1-.16.21-.24.32.72.34,1.3,0,1.89-.41.33-.23.72-.37,1.06-.58.47-.29.93-.2,1.2.2.15.23.03.64.02.97,0,.1-.05.19-.08.28.85.37,1.39-.29,2.03-.6.33-.16.62-.43.96-.53.41-.12.89-.3,1.25.17.3.39.22.96-.2,1.43.86.15,1.02.04,2.08-.6.64-.38,1.22-1.06,2.19-.69.41.52.69,1.11-.2,1.72,1.01.23,1.8.29,2.56-.33.49-.4,1.1-.67,1.68-.92.45-.2.89-.11,1.17.37.22.37.04.95-.35,1.22-.08.05-.15.11-.23.16.02.06.05.13.07.19.47-.16.95-.28,1.4-.5.51-.24.98-.57,1.46-.86.42-.26.82-.25,1.18.12.38.38.29.78.04,1.19-.07.11-.15.22-.24.35,1.05.3,1.97.07,2.82-.55.3-.22.62-.44.97-.53.65-.17,1.43.11,1.23,1.37,1,.11,1.93.03,2.74-.71.27-.24.68-.38,1.05-.44.85-.16.92-.06,1.04,1.16.49.03,1,.06,1.51.07.45.01.58.32.63.68.04.32.08.63-.36.73-.39.09-.77.29-1.16.3-1.6.03-3.21,0-4.81,0-.17,0-.35.03-.5.04-.06.26-.09.5-.17.71-.23.61-.7.8-1.28.51-.4-.19-.81-.38-1.17-.64-.62-.45-1.22-.68-1.96-.09.08.13.25.32.32.53.07.24.12.53.05.76-.03.12-.32.2-.51.24-.82.18-1.47-.23-2.12-.63-.61-.38-1.25-.45-1.91-.2.34.31.7.61,1.02.95.34.37.14.78-.15.98-.27.18-.76.29-1.03.16-.76-.34-1.46-.81-2.19-1.24-.42-.25-.87-.25-2.12.05.2.1.35.18.49.26.61.36.73.84.4,1.48-.23.45-.67.41-.97.27-.82-.38-1.62-.82-2.37-1.32-.44-.3-.83-.27-1.25-.17h0ZM56.55,56.41c-.1-.03-.16-.05-.22-.05-5.57,0-11.14,0-16.71.03-.17,0-.47.25-.49.41-.08.7-.12,1.41-.09,2.11.02.62.15,1.25.22,1.87.18,1.64.63,3.2,1.27,4.72.15.35.34.44.71.44,10.82-.01,21.65-.01,32.47,0,.54,0,.75-.25.89-.67.21-.62.42-1.24.6-1.87.66-2.29.91-4.6.57-7.01-.13-.01-.25-.03-.36-.03-5.27,0-10.55,0-15.82.01-.78,0-1.19.38-1.24,1.13,0,.04-.02.08-.02.12,0,1.28,0,2.56,0,3.84.77.06,1.46.09,2.15.16.55.06.83.42.75.99-.07.45-.31.71-.84.7-1.87-.03-3.74,0-5.61-.01-.64,0-1.1-.34-1.05-.83.06-.58.4-1.02,1.09-.96.57.04,1.14,0,1.74,0v-5.09h0ZM49.03,40c.49-.21.89-.37,1.26-.56.14-.07.27-.22.32-.36.17-.45.32-.92.46-1.39.74-2.52,1.47-5.05,2.22-7.57.68-2.32,1.38-4.65,2.07-6.97.45-1.49.92-2.98,1.39-4.46.11-.35.3-.64.73-.64.47,0,.64.31.76.69.8,2.59,1.61,5.17,2.39,7.77.57,1.88,1.09,3.78,1.65,5.66.56,1.9,1.15,3.8,1.7,5.7.29.99.56,1.96,1.94,1.95-2.79-10.42-5.59-20.84-8.38-31.26-.03,0-.07.01-.1.02-2.79,10.43-5.59,20.85-8.41,31.4h0ZM15.79,70.62c.28.11.48.23.7.27,1.35.24,2.7.47,4.05.68,1.51.24,3.01.46,4.52.69,1.64.25,3.27.53,4.91.76.7.1,1.41.13,2.12.21,1.31.15,2.62.33,3.94.46,1.11.11,2.22.17,3.33.25.55.04,1.1.08,1.65.12,1.23.09,2.45.17,3.68.26.02-.06.04-.11.07-.17-2.1-1.74-3.82-3.79-5.11-6.19-7.95.88-15.87,1.76-23.85,2.64h0ZM70.11,74.25c.27.01.39.03.5.02,1.54-.08,3.07-.15,4.61-.24.98-.06,1.96-.14,2.94-.24,1.34-.14,2.68-.31,4.02-.46.53-.06,1.06-.06,1.59-.14,1.92-.27,3.83-.56,5.75-.82.85-.12,1.71-.16,2.56-.31,1.56-.27,3.11-.59,4.67-.89.79-.16,1.58-.33,2.37-.5,0-.03,0-.06-.01-.08-7.9-.86-15.81-1.73-23.74-2.6-1.31,2.37-2.98,4.47-5.25,6.26h0ZM57.79,40.06v10.51c2.26-2.25,4.78-3.63,7.96-3.58,3.13.05,5.73,1.34,8.18,3.36-2.63-5.97-9.7-10.48-16.14-10.3h0ZM53.53,73.91h8.6c-.73-.6-1.37-1.09-1.96-1.62-.59-.53-.55-1.12.07-1.61.43-.34.88-.65,1.33-.95.54-.37,1.09-.72,1.73-1.14h-10.94c.8.54,1.52,1.03,2.24,1.51.34.23.7.42,1.01.67.45.38.21,1.25-.39,1.71-.55.42-1.07.89-1.7,1.43h0ZM29.5,49.26c-.12-.02-.19-.06-.26-.05-.85.07-1.71.17-2.56.23-1.38.09-2.75.15-4.13.24-.57.03-1.14.09-1.71.14-1.29.11-2.57.24-3.86.34-1.14.09-2.29.16-3.44.24,0,.03,0,.07,0,.1,5.01.72,10.02,1.44,15.06,2.17.3-1.13.6-2.25.91-3.39h0ZM101.34,50.5s.01-.08.02-.12c-5.28-.39-10.56-.79-15.9-1.18.33,1.19.63,2.3.95,3.46,5-.72,9.97-1.44,14.93-2.15h0ZM36.89,53.85c-1.5-2.59-3.01-5.19-4.57-7.9-.64,2.39-1.25,4.65-1.87,6.94,2.13.32,4.24.63,6.44.96h0ZM84.54,52.91c-.62-2.34-1.23-4.59-1.86-6.96-1.54,2.68-3.03,5.27-4.54,7.89,2.18-.32,4.26-.62,6.41-.93h0Z"/>
      <path class="cls-1" d="M67.32,58.64c1.37,0,2.74,0,4.11,0,.77,0,1.03.22,1.03.83,0,.56-.45.96-1.09.96-2.66,0-5.32,0-7.98,0-.84,0-1.29-.62-.95-1.35.09-.2.39-.41.6-.41,1.43-.04,2.86-.02,4.29-.02h0s0,0,0,0Z"/>
      <path class="cls-1" d="M47.68,58.64c1.37,0,2.74.03,4.11-.01.6-.02.76.32.83.78.07.47-.1.83-.59.97-.17.05-.35.05-.53.05-2.58,0-5.16,0-7.75,0-1.04,0-1.41-.51-.99-1.45.09-.19.52-.32.79-.33,1.37-.03,2.74-.01,4.11-.01h0Z"/>
      <path class="cls-1" d="M34.25,51.33c0,.8-.34,1.2-1.05,1.17-.64-.03-1.17-.36-1.1-1.22.05-.62.42-1.02,1.04-1,.72.02,1.11.39,1.11,1.05h0Z"/>
      <circle class="cls-1" cx="81.84" cy="51.41" r="1.17"/>
    </g>
  </g>
</svg>