<?xml version="1.0" encoding="UTF-8"?>
<svg id="_图层_2" data-name="图层 2" xmlns="http://www.w3.org/2000/svg" viewBox="0 0 208.51 56.87">
  <defs>
    <style>
      .cls-1 {
        fill: #a12612;
        stroke-width: 0px;
      }
    </style>
  </defs>
  <g id="_图层_1-2" data-name="图层 1">
    <path class="cls-1" d="M5.99,47.58c3.4,1.85,7.71-.26,10.5-2.99,3.36-3.29,5.73-7.45,7.87-11.64,1.85-3.62,3.61-7.49,3.51-11.55-.06-2.55-.86-5.14-.28-7.63s3.52-4.69,5.64-3.27c1.62,1.08,1.66,3.52.87,5.3s-2.18,3.25-2.95,5.04c-.54,1.24-.76,2.6-.97,3.93-.62,3.86-1.24,7.77-.89,11.66s1.78,7.84,4.68,10.46c3.42,3.09,7.86,3.6,12.17,4.47,4.97,1,9.92,1.94,14.99,2.43,10.48,1.02,21.13.63,31.38-1.92,4.32-1.07,8.57-2.36,12.74-3.93,5.76-2.18,11.84-4.67,16.97-8.12,4.3-2.89,8.17-6.4,12.05-9.78,1.54-1.35,2.95-2.95,4.07-4.66.55-.83,1.03-1.71,1.44-2.62.32-.71.81-1.13,1.15-3.1-24.27,21.55-58.72,31.28-90.58,25.07-7.09-1.38-14.35-5.14-15.22-13.08-.97-8.87,5.15-17.2,12.27-21.8,6.74-4.36,14.77-6.25,22.71-7.42-5.81,3.31-11.12,7.5-15.69,12.38-2.59,2.76-4.98,5.8-6.29,9.35s-1.42,7.68.41,10.99c2.43,4.39,7.62,6.42,12.53,7.43,9.3,1.91,18.97,1.31,28.29-.51,12.4-2.42,24.37-7.01,35.21-13.49,6.1-3.65,11.89-7.91,18.45-10.63-6.1,15.16-19.73,26.47-34.94,32.43s-31.93,7.07-48.24,6.22c-8.72-.45-17.59-1.49-25.55-5.11-2.16-.98-4.28-2.16-6.62-2.55-4.21-.7-8.34,1.25-12.43,2.46-3.87,1.15-8.3,1.6-11.75-.51s-4.89-7.57-1.87-10.26c.83,2.62,1.83,5.49,4.21,6.87.04.03.09.05.13.08Z"/>
    <path class="cls-1" d="M66.01,37.58c.1.49,6.83-27.5,67-35.17-16.76-1.9-34.64-4.84-50.41,3.07-5.99,3.01-11.31,7.66-14.63,13.53-3.44,6.07-3.3,11.84-1.96,18.57Z"/>
    <path class="cls-1" d="M69.51,39.41c.08-.1,1.25-.91,3.28-2.23,11.31-7.34,49.37-30.39,75.22-34.77,30.5-5.17,52.17-.5,54.33,0s6.17-2.04,6.17-2.04c0,0,.5,5.21-10.17,6.71s-26.83,2.17-25.83,21.5,7.17,20.67,7.17,20.67c0,0-5.67,1-8.17,0s-6-.17-18.17,1.67-31.67,1-31.67,1c0,0,22.67-.33,29.5-4.5s24.33-22.5,7.83-29.17-51.17,5.01-84,19.34l-5.5,1.83Z"/>
    <circle class="cls-1" cx="57.42" cy="19.99" r="4.17"/>
    <circle class="cls-1" cx="93.76" cy="34.83" r="3.58"/>
  </g>
</svg>