<?xml version="1.0" encoding="UTF-8"?>
<svg id="_图层_2" data-name="图层 2" xmlns="http://www.w3.org/2000/svg" viewBox="0 0 178.84 51.29">
  <defs>
    <style>
      .cls-1 {
        fill: #fff;
        stroke-width: 0px;
      }
    </style>
  </defs>
  <g id="_图层_1-2" data-name="图层 1">
    <g id="_图层_1-2" data-name=" 图层 1-2">
      <path class="cls-1" d="M5.24,44.44c2.96,1.53,6.64-.37,8.99-2.77,2.83-2.9,4.8-6.53,6.56-10.17,1.53-3.15,2.97-6.52,2.81-10.02-.1-2.2-.84-4.41-.38-6.57s2.95-4.11,4.8-2.92c1.42.9,1.5,3,.85,4.55s-1.82,2.84-2.45,4.4c-.44,1.08-.61,2.25-.76,3.4-.46,3.34-.92,6.72-.55,10.06s1.68,6.72,4.23,8.92c3,2.6,6.84,2.96,10.57,3.62,4.3.77,8.58,1.49,12.96,1.81,9.05.68,18.22.15,27-2.24,3.7-1,7.34-2.19,10.9-3.62,4.92-1.99,10.11-4.24,14.47-7.31,3.65-2.57,6.92-5.67,10.2-8.65,1.3-1.19,2.49-2.6,3.42-4.09.46-.73.86-1.49,1.19-2.28.26-.62.68-.99.93-2.69-20.51,19.02-50.01,28.04-77.57,23.28-6.13-1.06-12.46-4.16-13.36-10.99-1-7.62,4.12-14.91,10.17-19.01,5.73-3.88,12.61-5.66,19.43-6.82-4.94,2.96-9.44,6.67-13.29,10.96-2.18,2.43-4.18,5.09-5.25,8.17s-1.08,6.64.56,9.46c2.18,3.74,6.68,5.39,10.93,6.17,8.05,1.47,16.37.78,24.36-.97,10.64-2.32,20.87-6.49,30.08-12.28,5.19-3.26,10.1-7.04,15.7-9.5-4.97,13.17-16.51,23.17-29.5,28.59s-27.38,6.69-41.44,6.26c-7.52-.23-15.18-.96-22.11-3.93-1.88-.8-3.73-1.78-5.75-2.07-3.64-.52-7.16,1.23-10.66,2.35-3.31,1.06-7.12,1.53-10.13-.22s-4.35-6.43-1.8-8.8c.76,2.24,1.68,4.7,3.75,5.84.04.03.08.04.11.07h.03Z"/>
      <path class="cls-1" d="M56.76,34.71c.1.42,5.37-23.82,57.07-31.55-14.47-1.32-29.93-3.53-43.37,3.58-5.1,2.7-9.6,6.81-12.35,11.93-2.85,5.29-2.62,10.26-1.34,16.04Z"/>
      <path class="cls-1" d="M59.81,36.22c.07-.09,1.06-.81,2.78-1.98,9.61-6.53,41.97-27.1,64.16-31.36,26.18-5.02,44.94-1.4,46.81-1.01s5.28-1.87,5.28-1.87c0,0,.53,4.48-8.64,5.97-9.16,1.49-23.07,2.37-21.85,19,1.22,16.63,6.56,17.67,6.56,17.67,0,0-4.87.97-7.04.15s-5.17-.03-15.62,1.78-27.27,1.45-27.27,1.45c0,0,19.52-.71,25.33-4.43s20.54-19.84,6.2-25.28c-14.34-5.44-43.99,5.27-72.01,18.23l-4.7,1.68h0Z"/>
      <circle class="cls-1" cx="49.04" cy="19.72" r="3.59"/>
      <circle class="cls-1" cx="80.62" cy="31.82" r="3.09"/>
    </g>
  </g>
</svg>