<?xml version="1.0" encoding="UTF-8"?>
<svg id="_图层_2" data-name="图层 2" xmlns="http://www.w3.org/2000/svg" viewBox="0 0 124.07 57.73">
  <defs>
    <style>
      .cls-1 {
        fill: #fff;
        stroke-width: 0px;
      }
    </style>
  </defs>
  <g id="_图层_1-2" data-name="图层 1">
    <g>
      <path class="cls-1" d="M95.61,8.9c11.58-6.18,27.18-7.41,27.18-7.41l1.29-1.49s-21.85,0-36.21,3.47c-14.36,3.47-32.81,2.86-38.68,2.08C43.32,4.79,1.63,3.71.08,22.39c0,0-3.4,15.44,33.35,14.82,0,0,.62,8.65-31.04,2.78.09,1.94,1.46,3.57,3.36,3.99,7.76,1.72,27.8,5.56,39.57,2.5,14.82-3.86,35.46-24.29,3.81-35.1,0,0-14.51-2.47-14.36,4.01,0,0,6.02,5.87,6.02,10.19s.46,6.95-1.24,6.95l-10.5-12.51s-4.01-3.24.46-6.49c4.48-3.24,17.29-8.8,34.59-.93,17.29,7.87,18.22,10.5,17.6,23.16,0,.11-.08.25-.11.35-.12.33-.26.64-.41.96-.24.49-.51.96-.8,1.41-.39.6-.83,1.18-1.3,1.72-.59.67-1.22,1.3-1.9,1.88-.82.7-1.69,1.33-2.6,1.9-1.09.67-2.23,1.26-3.41,1.76-1.4.6-2.84,1.08-4.31,1.47-1.09.29-2.19.53-3.3.73-.56.1-1.11.19-1.67.26s-1.1.1-1.65.15c-.53.05-1.06.13-1.59.22-.5.08-.9.28-1.35.5-.27.17-.8.5-.61.89.31.62,10.35.85,19.3-1.31,8.96-2.16,21.92-5.48,31.03-4.55v-1c0-1.32-.83-2.5-2.08-2.93-3.73-1.29-11.45-4.23-14.44-7.34-4.01-4.17-6.49-17.76,5.1-23.93ZM43.61,29.75c1.24-8.03-7.26-15.52-7.26-15.52,8.31,2.16,10.99,8.85,10.99,8.85,1.65,9.11-2.37,12.92-5.76,15.96-3.4,3.04-10.63,3.6-10.63,3.6,1.54-.08,11.43-4.86,12.66-12.89ZM33.31,31.14s-5.94.23-8.88-5.79c0,0-.5-2.43-.12-4.52l.66.85c0,.12,8.34,9.46,8.34,9.46Z"/>
      <rect class="cls-1" x="3.35" y="55.18" width="120.72" height="2.55"/>
    </g>
  </g>
</svg>