<?xml version="1.0" encoding="UTF-8"?>
<svg id="_图层_2" data-name="图层 2" xmlns="http://www.w3.org/2000/svg" viewBox="0 0 143.46 42.24">
  <defs>
    <style>
      .cls-1 {
        fill: #fff;
        stroke-width: 0px;
      }
    </style>
  </defs>
  <g id="_图层_1-2" data-name="图层 1">
    <g>
      <path class="cls-1" d="M21.56,1.54c-4.62,2.42-9.46,4.53-13.58,7.73S.46,17.04.04,22.24c-.48,5.94,3.12,11.69,8.06,15.02s11.02,4.56,16.97,4.89c6.34.34,12.69-.27,18.95-1.25s11.97-2.91,18.03-3.76c3.78-.53,7.73-.8,11.56-.8,4.74,0,9.54-.59,14.16-1.62,6.44-1.42,15.53-4.01,17.49-11.37.85-3.2-.65-6.38-3-8.53-2.73-2.49-5.86-3.18-9.44-3.08,3.16,1.3,4.87,4.59,4.44,7.93-.51,4.01-2.77,7.69-5.97,10.18-1.63,1.27-3.5,2.24-5.47,2.84-4.35,1.32-9.78,1.22-14.19.19-3.83-.9-7.62-3.04-8.85-7.02-2.39-7.75,5.43-15.59,11.34-19.4,5.13-3.31,11.05-5.23,17.03-6.46-10.06,1.23-20.19,2.2-30.32,1.82-6.27-.23-12.53-.99-18.81-.87s-12.69,1.15-18.15,4.25c-5.22,2.95-9.61,8.25-10.49,14.36s2.46,13.32,8.74,15.32c-4.91-1.56-7.53-9.58-7.65-14.04-.13-4.62,2.29-8.33,5.79-11.13C29.97,1.94,49.81.15,56.38,13.1c1.98,3.91,1.74,8.95,1.53,13.22-.66,13.09-15.31,15.02-25.59,14.06-6.36-.6-13.01-1.47-18.25-5.44-2.93-2.22-5.24-5.37-6.04-8.96-.72-3.23-.2-6.64.91-9.76,2.21-6.22,6.81-11.57,12.63-14.68Z"/>
      <path class="cls-1" d="M82.5,29.79c-1.81-1.37-3.68-2.31-5.01-4.27-2.33-3.44-1.19-7.28,1.3-10.29,7.78-9.38,25.67-6.54,28.63-4.57,2.58,1.72,5.13,3.88,6.07,6.95.67,2.18.31,4.46-.62,6.51-1.12,2.46-3.25,5.53-5.65,6.88-.36.2-.74.37-1.13.53-5.74,2.42-12.1,4.69-18.29,5.54-7.16.99-26.66,4.07-26.66,4.07,0,0,48.38-5.8,55.91-4.57,7.53,1.23,17.77,4.44,21.35,2.22,0,0-5.68-.25-10.49-1.85s-16.04-6.29-10.98-19.25C121.99,4.74,143.46.55,143.46.54c-.34.07-1.01-.22-1.35-.27-1.38-.2-2.8-.21-4.19-.13-3.45.19-6.81,1.04-9.86,2.67-2.64,1.41-5.34,2.46-8.3,3.03-7.65,1.48-8.64.37-19.75.37-9.06,0-19.53.92-26.88,6.79-2.38,1.9-4.95,4.57-5.6,7.69-.76,3.62,2.07,6.64,5.21,7.94,2.79,1.16,6.78,1.89,9.75,1.14Z"/>
      <ellipse class="cls-1" cx="85.46" cy="19.98" rx="2.86" ry="2.12" transform="translate(41.04 95.68) rotate(-72.76)"/>
      <circle class="cls-1" cx="37.43" cy="13.94" r="4.38"/>
      <path class="cls-1" d="M18.83,22.42s.1.04.16.05c.23.05.47,0,.69-.05,6.5-1.45,13.03-2.3,19.69-2.39.07,0,.13,0,.2,0,1.53-.02,3.06,0,4.59.06,1.9.07,3.8.19,5.7.37.95.09,1.89.19,2.84.31.71.09,1.4.42,2.13.38.83-.05,1.43-.79.5-1.32-.51-.29-1.13-.3-1.7-.38-1-.14-2-.22-3-.3-5.01-.4-9.9-.54-14.92-.24-5.14.31-10.49,1.31-15.58,2.08-.41.06-.89.15-1.25.37-.42.26-.56.86-.06,1.08Z"/>
      <path class="cls-1" d="M19.24,23.62c.28-.05.57-.1.85-.15.78-.13,1.56-.25,2.34-.37,1.18-.18,2.36-.34,3.54-.5,1.48-.19,2.95-.37,4.43-.52,1.67-.17,3.35-.32,5.02-.44,1.77-.13,3.54-.22,5.31-.27s3.53-.05,5.3.01c.64.02,1.28.05,1.92.1s1.26.13,1.89.15c.9.03,1.8.24,2.69.38l2.82.43c.52.08.67.46.44.93-.04.09-1.15.06-1.26.06-.63.04-1.26.11-1.88.2-.98.15-1.96.32-2.91.63s-1.75.81-2.59,1.26c-1.76.94-3.51,1.93-5.02,3.25s-2.38,3.07-2.73,4.96c0,0-.71,2.34-1.83,0-.65-1.35-1.41-2.65-2.39-3.79-1.41-1.64-3.22-2.88-5.27-3.59-1.42-.49-2.84-.64-4.32-.82-1.68-.2-3.36-.44-5.03-.72-.52-.09-1.17-.06-1.55-.47-.31-.33-.27-.64.22-.72Z"/>
    </g>
  </g>
</svg>