<?xml version="1.0" encoding="UTF-8"?>
<svg id="_图层_2" data-name="图层 2" xmlns="http://www.w3.org/2000/svg" viewBox="0 0 115.73 42.16">
  <defs>
    <style>
      .cls-1 {
        fill: #fff;
        stroke-width: 0px;
      }
    </style>
  </defs>
  <g id="_图层_1-2" data-name="图层 1">
    <g>
      <path class="cls-1" d="M63.29,1.36c-6.05.18-12.11.29-18.15.29l-8.13.15c-2.48.04-5.05-.14-7.48.47-2.02.5-15.87,4.2-16.63,15.2-.76,11,11.51,18.73,19.65,19.91,4.92.71,10.31.46,14.73-2.02,4.51-2.53,7.84-8.2,7.73-13.38-.15-6.86-6.57-9.19-12.47-8.66-.36.03-.73.07-1.09.12,0,0,1.51-3.44,9.15-3.86,3.63-.2,7.68.1,10.86,2.01,3.76,2.25,4.5,6.3,3.73,10.36-1.92,10.04-10.33,16.11-20.22,16.69,0,0-16.63,2.18-24.95-2.02,0,0-4.66-1.97-8.82.29s-11.21,3.78-11.21,3.78c0,0,.5,1.47.5,1.47,7.21,0,14.62-.18,21.9-.25,7.4-.07,14.81.09,22.18-.64,6.68-.66,13.5-2.72,18.57-7.3,5.59-5.05,8.48-13.38,5.61-20.64-.61-1.54-1.53-2.95-2.77-4.07-2.05-1.84-4.86-2.49-7.47-3.08-4.3-.98-8.99-1.13-13.35-.45-5.05.78-9.84,3.56-11.44,8.66-1.08,3.43-.45,7.47,1.51,10.46,1.89,2.89,4.92,4.92,8.39,5.16.37.03,3.1.18,3.21-.16-1.86,5.57-12.13,4.11-15.99,2.67-1.26-.47-2.43-1.15-3.46-2.02-5-4.23-6.14-13.61-3.2-19.3,2.06-3.98,6.15-6.51,10.34-7.77,5.09-1.53,10.16-.84,15.36-.42,5.96.49,11.89,1.28,17.83,1.9,5.57.58,11.87,1.82,17.28-.1,3.13-1.11,6.01-2.87,8.69-4.82-.61.44-2.94.16-3.72.2-1.25.07-2.5.13-3.74.2-2.71.15-5.42.28-8.13.4-4.93.22-9.87.41-14.81.56ZM43.95,23.98c-1.6,0-2.9-1.3-2.9-2.9s1.3-2.9,2.9-2.9,2.9,1.3,2.9,2.9-1.3,2.9-2.9,2.9Z"/>
      <g>
        <path class="cls-1" d="M85.91,16.32s-11.42,12.26-15.87,16.8-8.57,6.72-8.57,6.72c0,0,5.38.17,11.09-2.52,8.57-4.03,17.29-8.84,24.66-14.84,5.85-4.76,10.45-10.79,15.13-16.65,1.14-1.42,2.27-2.85,3.39-4.29v-.92s-17.13,2.77-29.82,15.71ZM113.06,3.46c-1.97,1.7-3.64,3.94-5.39,5.85-3.05,3.31-6.23,6.34-9.7,9.22-7.14,5.94-14.81,11.63-22.91,16.21-2.75,1.55-5.76,3.23-8.92,3.73l-2.21.35,1.78-1.36c.31-.24.62-.48.93-.71.8-.61,1.59-1.22,2.39-1.83,1.17-.9,2.34-1.79,3.51-2.69,1.43-1.1,2.86-2.19,4.28-3.29,1.57-1.21,3.14-2.42,4.72-3.63s3.21-2.47,4.81-3.71,3.04-2.35,4.56-3.53c1.32-1.03,2.65-2.05,3.96-3.09,1.01-.79,2.02-1.59,3.03-2.39,1.71-1.36,3.48-2.65,5.15-4.04,1.28-1.07,2.6-2.09,3.96-3.06.94-.67,1.9-1.22,2.92-1.77.82-.44,1.66-.91,2.55-1.2l2.09-.7-1.49,1.62Z"/>
        <path class="cls-1" d="M107.42,5.89c-.73.51-1.43,1.06-2.15,1.61-1.98,1.52-3.89,3.13-5.88,4.63-5.46,4.45-33.34,25.79-33.34,25.79,9.68-1.53,34.84-22.07,37.69-25.18s8.9-9.66,8.9-9.66c-1.18.39-2.3,1.06-3.39,1.65-.64.35-1.25.74-1.84,1.16ZM110.2,4.89c-2.29,2.49-4.59,4.97-6.88,7.46-2.81,3.06-23.86,20.09-34.56,24.19,6.11-4.68,12.21-9.37,18.3-14.07,4.47-3.45,8.91-6.94,13.35-10.44,2.09-1.65,4.17-3.29,6.29-4.9,1.11-.84,2.23-1.67,3.5-2.25Z"/>
      </g>
    </g>
  </g>
</svg>