<?xml version="1.0" encoding="UTF-8"?>
<svg id="_图层_2" data-name="图层 2" xmlns="http://www.w3.org/2000/svg" viewBox="0 0 128.54 47.77">
  <defs>
    <style>
      .cls-1 {
        fill: #fff;
        stroke-width: 0px;
      }
    </style>
  </defs>
  <g id="_图层_1-2" data-name="图层 1">
    <g>
      <g>
        <ellipse class="cls-1" cx="19.56" cy="28.93" rx="5.1" ry="3.98" transform="translate(-15.35 29.63) rotate(-57.08)"/>
        <ellipse class="cls-1" cx="56.2" cy="14.67" rx="4.06" ry="3.44"/>
      </g>
      <path class="cls-1" d="M116.31,42.19l4.1-4.1,8.13,3.11s-1.02-16.25-1.02-16.25c-3.6,3.56-8.51,5.94-13.63,4.74-6.79-1.59-12.22-9.76-6.68-15.8-5.92,2.2-7.28,7.65-7.28,7.65-2.2,10.35,11.34,16.56,11.34,16.56.15,1.69,1.02,2.77,1.97,3.46l-.51,1.11s-7.79,1.03-11.62-2.4c-3.82-3.42-10.65-11.89-3.39-29.55.07,0,.14,0,.21,0,.59,0,1.14-.11,1.65-.3.06,0,.09,0,.09,0,.04-.03.08-.05.12-.08,1.24-.54,2.16-1.61,2.41-2.89.06-.24.08-.47.07-.69,0,0,0,0,0,0,0-.01,0-.03,0-.04,0-.03,0-.06,0-.09,0-.07,0-.13-.01-.2.28-.01,5.83.08,6.35.13,2.28.21,4.55.64,6.68,1.47,4.87,1.9,7.51,6.09,6.8,11.29,0,0,.68,1.35-2.71,4.23,0,0,3.39-.08,5.59-3.39,2.2-3.3,2.2-10.28-7.62-13.77,0,0-4.64-1.93-15.31-.9-.39-1.05-1.25-1.9-2.34-2.35.33-1.92,4.2-3.12,4.2-3.12,0,0-10.24,0-10.24,0,.55,0,1.14.81,1.46,1.18.39.45,1.24,1.23,1.25,1.86-1.21.43-2.15,1.33-2.56,2.46-6.57-.05-13.14,0-19.71.13-4.97.1-9.95.24-14.92.58-3.67.25-7.37.45-10.78,1.92-2.08.89-4.16,2.07-5.43,4.01-.59.9-.98,2-.74,3.05.27,1.23,1.34,2.13,2.43,2.76,2.55,1.48,5.61,2.05,8.52,1.59-1.32-.22-2.55-.87-3.6-1.7-.94-.74-1.8-1.67-2.06-2.84-.28-1.24.18-2.56.99-3.53,3.71-4.47,12-4.22,17.21-3.57,4.66.58,9.29,3.44,8.5,8.82l-.03.17c-.15.01-.3.03-.44.07-1.07.26-1.8,1.2-2.67,1.88-.68.53-1.46.91-2.24,1.29-2.5,1.21-4.99,2.42-7.49,3.63-1.11.54-2.23,1.08-3.43,1.34-1.35.3-2.89.28-3.91,1.21-.43.39-.72.92-1.14,1.32-.4.39-.89.65-1.38.92-4.38,2.36-8.75,4.71-13.13,7.07-.29-.15-.58-.3-.87-.45.36-.24.52-.68.72-1.06.71-1.41,2.05-2.39,3.36-3.26,4-2.65,8.28-4.86,12.75-6.6,4.26-1.65,8.81-2.93,12.3-5.88,1.36-1.15,2.59-2.74,2.42-4.51-.13-1.3-1.03-2.44-2.15-3.11-1.16-.7-2.53-.97-3.87-1.04-1.39-.07-1.53-.05-4.65.1,1.6-.08,3.1.97,4.38,1.93s2.26,2.5,2.1,4.09c-.49,5.12-8.78,5.99-12.6,6.4-4.59.5-9.56.01-11.91-4.53-1.25-2.41-1.66-5.99.23-8.2,1.68-1.97,5.41-3.72,8.07-3.73,0,0-29.07.16-29.07.16,0,0-.29,0-.49,0-.63-.32-1.37-.51-2.16-.51-2.26,0-4.11,1.52-4.22,3.43-.05.1-.06.17-.03.19,0,0-9.19-4.4-12.66-6.06,2.5,1.42,4.72,3.99,5.44,6.67.88,3.25-.55,6.94-1.99,9.78-.4.78-.83,1.57-1.34,2.28-.51.7-1.09,1.48-1.34,2.35-.35,1.23-.15,2.78-.19,4.06-.02.66-.37,1.41-.45,2.09-.09.73-.12,1.47-.12,2.21,0,1.4.02,2.8.14,4.19.11,1.26.11,2.72,1.01,3.7.91,1,2.15,1.67,3.32,2.31.58.32,1.18.59,1.79.87.33.15,1.5.62,1.98,1.03-.03.16-.06.32-.06.49,0,1.54,1.53,2.78,3.43,2.78,1.67,0,3.06-.97,3.36-2.25h44.82l63.08.17v-2.1s-3.58.82-6.59-1.4ZM35.04,35.56c-.07.05-.14.11-.2.16-.41.36-.78.85-1.09,1.47-.45.91-.68,1.99-.11,2.91-3.31-.15-6.63.07-9.93-.09-3.45-.16-7.14-.72-10.12-2.57-2.95-1.84-3.87-5.88-3.35-9.13.43-2.67,2.11-4.8,4.52-5.97.15-.07.87-.51,1.05-.44,0,0-.87-.38-.87-.38-5.42.17-8.58,5.42-8.58,5.42-5.53,8.41,5.3,12.86,5.3,12.86,5.95,2.12,20.76,1.15,22.48,1.03.27.33.5.58.5.81,0,.72-1.31,2.16-1.86,2.29-.49.11-15.03-.15-18.1-.2-.32-.5-.82-.92-1.43-1.18-.23-.11-.47-.19-.71-.23-.29-.06-.59-.1-.9-.1-1.13,0-2.14.45-2.76,1.14-3.86-2.55-7.32-5.75-8.03-10.55-.81-5.42,2.44-12.08,7.87-13.9,3.67-2.13,8.55-2.24,12.52-.98,3.36,1.06,7.6,3.18,8.64,6.83.77,2.72-.42,5.81-1.97,8.04-.43.62-1.58,2.33-2.44,2.47,2.64-.41,5.42-1.23,7.42-3.09,2.85-2.65,3.11-7.12,1.69-10.56-1.34-3.25-4.14-5.72-7.11-7.41-2.24-1.28-4.63-2.31-7.11-3.04.51-.6.81-1.33.81-2.12,0-.56-.15-1.09-.42-1.57,5.21-.02,10.84,1.91,14.75,5.4,6.26,5.6,6.42,17.53-.44,22.7ZM95.18,9.81l-16.73,8.9c-.08-.14-.17-.28-.27-.41l16.49-8.94c.16.16.33.32.51.46ZM93.93,8.27c.07.15.14.29.23.42l-16.66,8.94c-.24-.17-.5-.33-.79-.45l17.22-8.92ZM83.13,7.9c3.29-1.3,6.92-1.33,10.47-1.24,0,.03,0,.06,0,.08,0,.29.04.58.1.86-5.42,2.84-10.84,5.68-16.25,8.52-.3.16-.6.31-.91.44l-.02-.08c-.07-3.84,3.04-7.17,6.61-8.58ZM71.92,21.74l-10.79,5.51c-.15-.28-.35-.55-.6-.78l10.91-5.36c.12.23.28.44.47.63ZM71.14,19.67c0,.07-.01.14-.01.21,0,.15.02.29.04.43l-11.32,5.64c-.26-.15-.55-.28-.85-.39l12.15-5.89ZM55.87,31.19c-3.29,7.97-16.34,8.49-16.34,8.49h0c.14-.29.25-.62.29-.97l15.14-7.83c.28.13.59.23.92.31ZM54.2,30.45l-14.45,7.25c-.03-.1-.06-.19-.09-.29l14.1-7.34c.14.14.28.27.45.39ZM52.99,28.57c.03.27.11.53.24.77l-13.97,7.3c-.09-.14-.19-.27-.29-.39l14.02-7.68ZM93.67,35.73c-1.69,4.03-.85,9.12-31.32,8.22h-2.22c-3.94-.01-18.46-.1-20.28-.4-2.11-.34-1.74-2.16-1.74-2.16,0,0,.36-.25.76-.7,2.89.05,9.75.19,24.57.48,4.83.09,9.71.01,14.5-.66,3.53-.5,8.04-1.05,10.15-4.35,2.25-3.5-.56-7.2-4.07-8.2-2.1-.59-5.25-.12-5.25-.12,1.46.39,2.36,1.2,2.93,1.62,1.63,1.19,2.64,2.96,2.2,5.04-1.42,6.75-13.48,4.89-18.18,4.47-6.7-.6-8.38-6.35-8.67-7.62.05,0,.09,0,.14,0,2.33,0,4.21-1.36,4.21-3.04,0-.05,0-.11-.01-.16l11.42-5.74c.61.33,1.34.52,2.13.52,2.1,0,3.81-1.36,3.81-3.04,0-.14-.02-.27-.04-.41l17.26-9.2c.23.11.48.2.73.27-.17.73-.5,1.52-1.2,2.04-1.61,1.21-10.07,9.9-23.49,13.51-2.77.75-5.84,1.62-7.87,3.79-.77.83-1.36,1.82-1.36,2.98,0,2.17,1.71,3.61,3.64,4.24,1.81.59,3.88.64,5.69.02-.37.12-1.17-.03-1.54-.14-.53-.16-1.02-.46-1.46-.79-.64-.47-1.24-1.02-1.59-1.73-.42-.86-.38-1.82-.02-2.69,1.25-3.09,4.82-4.41,7.79-5.22,2.26-.61,4.6-.98,6.94-1.14.02,0,.03,0,.05,0,10.04-.68,13.09,6.28,11.4,10.31Z"/>
    </g>
  </g>
</svg>