<?xml version="1.0" encoding="UTF-8"?>
<svg id="_图层_2" data-name="图层 2" xmlns="http://www.w3.org/2000/svg" viewBox="0 0 574.36 404.72">
  <defs>
    <style>
      .cls-1 {
        fill: #942a11;
        stroke-width: 0px;
      }
    </style>
  </defs>
  <g id="_图层_1-2" data-name="图层 1">
    <path class="cls-1" d="M105.93,10s-45,158-9,237c18.05,39.61,55.1,74.91,99.02,82.58,22.76,3.97,45.8-.66,65.42-12.8,35.8-22.16,51.48-65.06,58.25-104.87,6.77-39.78,5.31-80.72,5.31-120.9,0-44,0-76,13-91-3.52,4.06,1.19,26.14,1.67,30.91,1.85,18.37,5.23,37.03,10.88,54.66,17.29,53.93,42.82,104.19,50.45,161.42.16,1.23,7.38-4.69,7.6-4.94,8.17-9.46,9.09-25.47,9.69-37.2,1.29-24.83-2.58-50.08-5.49-74.71-5.14-43.51-11.72-87.08-19.81-130.15,0,0,45,81,69,131,24,50,26,75.33,26,75.33,0,0,34-25.33-19-144.33C468.93,62,438.93,0,438.93,0c58.95,42.25,113.87,107.62,131.2,179.26,17.87,73.84-22.76,137.01-86.41,171.15-60.52,32.47-128.68,50.45-197.22,53.59C111.93,412,19.93,353,2.93,247-14.07,141,45.93,63,105.93,10Z"/>
    <ellipse class="cls-1" cx="210.26" cy="143.35" rx="33.67" ry="59.01"/>
  </g>
</svg>