<?xml version="1.0" encoding="UTF-8"?>
<svg id="_图层_2" data-name="图层 2" xmlns="http://www.w3.org/2000/svg" viewBox="0 0 90.01 74.59">
  <defs>
    <style>
      .cls-1 {
        fill: #fff;
        stroke-width: 0px;
      }
    </style>
  </defs>
  <g id="_图层_1-2" data-name="图层 1">
    <g>
      <path class="cls-1" d="M40.37,0s.24,3.77,3.61,3.86c0,0-8.59,18.23-31.4,19.92,0,0-.64.27-.92-.25s-.71-1.34-1.35-1.9-1.46-.59-1.87-.84,1.08-1.67,1.08-1.67C9.52,19.1,20.05,4.82,40.37,0Z"/>
      <path class="cls-1" d="M51.01,0s-.24,3.77-3.61,3.86c0,0,8.59,18.23,31.4,19.92,0,0,.64.27.92-.25s.71-1.34,1.35-1.9,1.46-.59,1.87-.84-1.08-1.67-1.08-1.67c0,0-10.53-14.28-30.85-19.1Z"/>
      <path class="cls-1" d="M11.7,28.75l66.58.4s1.45,1.53-.8,2.09-25.14,5.54-27.95,4.74c0,0-1.77-2.09-2.49-2.73s-3.29-1.37-4.66.64-1.2,2.17-3.21,1.85-24.25-1.2-27.47-5.46c0,0-1.12-1.2,0-1.53Z"/>
      <path class="cls-1" d="M40.18,39.68s.59,2.49,2.3,3.16c0,0-2.68,15.63-30.52,27.84,0,0,3.16-27.25,28.22-31Z"/>
      <path class="cls-1" d="M49.69,39.68s-.59,2.49-2.3,3.16c0,0,2.68,15.63,30.52,27.84,0,0-3.16-27.25-28.22-31Z"/>
      <path class="cls-1" d="M13.36,73.78s34.27,1.82,60.72,0c0,0-28.38-10.28-60.72,0Z"/>
      <path class="cls-1" d="M6.24,31.72s1.85.72,3.61,0c0,0,5.93,23.93-1.49,36.14l-2.12-1.29-3.94.88s-7.23-21.44,3.94-35.74Z"/>
      <path class="cls-1" d="M83.77,32.41s-1.85.72-3.61,0c0,0-5.93,23.93,1.49,36.14l2.12-1.29,3.94.88s7.23-21.44-3.94-35.74Z"/>
    </g>
  </g>
</svg>