<?xml version="1.0" encoding="UTF-8"?>
<svg id="_图层_2" data-name="图层 2" xmlns="http://www.w3.org/2000/svg" viewBox="0 0 100.27 45.49">
  <defs>
    <style>
      .cls-1 {
        fill: #fff;
        stroke-width: 0px;
      }
    </style>
  </defs>
  <g id="_图层_1-2" data-name="图层 1">
    <g id="_图层_1-2" data-name=" 图层 1-2">
      <path class="cls-1" d="M29.74,20.44c4.44,4.34,12.83,10.95,10.77,17.86-.35,1.16-1.49,3.16-2.51,3.87-.4.28-.84.5-1.25.76-.45.29-.97.63-1.25,1.09-.24.39-.25.82.01,1.2,0,0,12.04-4.21,15.37-13.29,0,0,4.84,9.46,15.91,13.54.03.01.11-.43.12-.46.09-.47,0-1.01-.38-1.34-.27-.23-.61-.36-.9-.56-.14-.09-.28-.19-.42-.29-.37-.27-.72-.56-1.05-.87-.41-.38-.79-.79-1.14-1.24-.39-.5-.73-1.04-1.01-1.6-.3-.62-.52-1.29-.65-1.97-.14-.77-.16-1.55-.06-2.33.11-.92.38-1.83.74-2.68.46-1.08,1.08-2.09,1.78-3.03.9-1.22,1.93-2.33,3.03-3.38,1.41-1.34,2.94-2.57,4.51-3.72.13-.1.27-.2.4-.29.3-.21,1.09.28,1.21.54.54,1.19-3.12,4.67-3.6,5.83-1.64,3.9-2.67,9.73,2.78,11.13,1.37.35,3.72-.02,4.85-.68,3.24-1.88,4.85-5.79,5.39-9.35.47-3.15-.63-6.25-3.21-8.2-3.76-2.84-9.12-1.72-13.09.07-1.88.85-3.39,2.03-5.06,3.21-1.15.81-2.75,2.15-4.1,2.6,0,0-1.93.64-.32-1.61,1.78-2.49,3.47-4.61,3.7-7.85.18-2.54-.55-5.17-2.15-7.17-4.33-5.41-12.16-3.91-15.38,1.84-2.13,3.81-1.05,8.99,1.47,12.31.22.3,1.39,1.9.5,2.02-.16.02-.33-.03-.46-.12-3.64-2.43-7.27-5.94-11.43-7.5-5.55-2.08-11.94-.64-14.4,5.19-1.38,3.27-.9,7.02,1.02,9.96,1.39,2.14,3.58,4.41,6.22,4.78,7.64,1.07,6.49-8.59,4.61-12.99-.43-1.01-.84-2.02-1.26-3.03-.14-.33-.64-1.09-.6-1.45,0,0,.18-1.99,1.29-.86h0Z"/>
      <path class="cls-1" d="M7.17,0c-.11-.07-1.05.74-1.13.81-.89.71-1.7,1.53-2.39,2.43-1.42,1.86-2.23,4.09-2.24,6.44,0,2.94,1.07,5.93,3.13,8.06.8.83,1.7,1.57,2.63,2.25.18.13,1.55-1.1,1.67-1.2,1.25-1.11,2.25-2.49,2.92-4.03,1.83-4.21,1.04-9.33-2.15-12.66C8.86,1.34,8.08.57,7.17,0ZM7.08,12.29c-1.54,0-2.79-1.25-2.79-2.79s1.25-2.79,2.79-2.79,2.79,1.25,2.79,2.79-1.25,2.79-2.79,2.79Z"/>
      <path class="cls-1" d="M14.17,30.82c-1.13-3.03-3.15-5.64-5.64-7.89-.14-.13-1.23-1.24-1.46-1.06-1.9,1.54-3.06,3.07-3.65,3.79C.77,28.92-.17,32.63.02,37.01c.18,4.05,3.05,7.84,6.94,8.19,5.62.5,8.49-5.5,8.14-10.12-.11-1.51-.44-2.92-.93-4.26h0ZM7.6,39.19c-2.55,0-4.62-2.07-4.62-4.62s2.07-4.62,4.62-4.62,4.62,2.07,4.62,4.62-2.07,4.62-4.62,4.62Z"/>
      <path class="cls-1" d="M92.3.12c-.11-.07-1.05.74-1.13.81-.89.71-1.7,1.53-2.39,2.43-1.42,1.86-2.23,4.09-2.24,6.44,0,2.94,1.07,5.93,3.13,8.06.8.83,1.7,1.57,2.63,2.25.18.13,1.55-1.1,1.67-1.2,1.25-1.11,2.25-2.49,2.92-4.03,1.83-4.21,1.04-9.33-2.15-12.66-.74-.77-1.52-1.54-2.43-2.11h0ZM92.21,12.41c-1.54,0-2.79-1.25-2.79-2.79s1.25-2.79,2.79-2.79,2.79,1.25,2.79,2.79-1.25,2.79-2.79,2.79Z"/>
      <path class="cls-1" d="M99.31,30.94c-1.13-3.03-3.15-5.64-5.64-7.89-.14-.13-1.23-1.24-1.46-1.06-1.9,1.54-3.06,3.07-3.65,3.79-2.66,3.26-3.6,6.97-3.4,11.35.18,4.05,3.05,7.84,6.94,8.19,5.62.5,8.49-5.5,8.14-10.12-.11-1.51-.44-2.92-.93-4.26h0ZM92.74,39.3c-2.55,0-4.62-2.07-4.62-4.62s2.07-4.62,4.62-4.62,4.62,2.07,4.62,4.62-2.07,4.62-4.62,4.62Z"/>
      <path class="cls-1" d="M14.18,16.54c5.75-4.99,12.44-8.99,19.56-11.68,10.12-3.83,21.26-4.66,31.59-1.12,8.33,2.86,15.55,8.22,21.55,14.58-2.82-2.99-5.4-5.97-8.69-8.52C69.22,2.82,58.25-.74,46.84.3c-12.62,1.15-23.33,8.16-32.66,16.25,0,0,0,0,0,0h0Z"/>
    </g>
  </g>
</svg>