<?xml version="1.0" encoding="UTF-8"?>
<svg id="_图层_2" data-name="图层 2" xmlns="http://www.w3.org/2000/svg" viewBox="0 0 97.88 51.66">
  <defs>
    <style>
      .cls-1 {
        fill: #fff;
        stroke-width: 0px;
      }
    </style>
  </defs>
  <g id="_图层_1-2" data-name="图层 1">
    <g>
      <path class="cls-1" d="M4.67,13.51S35.75.36,36.78.17c0,0-13.33-.94-23.66,5.16S3.73,12.1,3.73,12.1c0,0-.85.66.94,1.41Z"/>
      <path class="cls-1" d="M5.86,15.73c.37.08,1.55-.67,1.9-.8,10.15-3.9,22.56-1.93,29.02,7.56,0,0-30.92-6.76-30.92-6.76Z"/>
      <path class="cls-1" d="M92.37,15.73c-.37.08-1.55-.67-1.9-.8-10.15-3.9-22.56-1.93-29.02,7.56l30.92-6.76Z"/>
      <path class="cls-1" d="M95.74,10.85S80.35-1.34,60.94.12l31.92,13.38s.79.65,1.04,0,.16-1.53.69-1.74.99-.38,1.15-.53,0-.38,0-.38Z"/>
      <path class="cls-1" d="M43.99,1.91c.52,1.39,1.19,2.78,2.32,3.75,3.65,3.13,6.02-.98,7.07-4.03.19-.56,5.76,2.43,6.3,2.82,5.79,4.26,4.14,12.84-.42,17.34-.95.94-2.01,1.77-3.17,2.44-.88.52-1.89,1.26-2.9,1.46-1.29.26-2.25-.82-3.44-1.15-1.61-.45-2.27.98-3.73,1.17-.29.04-.58-.03-.86-.11-4.96-1.31-10.01-4.61-11.21-9.91-1.56-6.91,3.31-12.68,10.05-13.8Z"/>
      <path class="cls-1" d="M93.91,17.76s-3.44-.49-6.51,4.2c0,0-.44,1.56,1.19,1.38s9.01-.38,9.01-.38v-3.38s-2.07.61-3.69-1.82Z"/>
      <path class="cls-1" d="M97.6,24.3v1.88c-2.1-.07-4.23-.15-6.33.02-1.36.11-2.84.67-4.18.21-.22-.07-.43-.18-.57-.36-.31-.39-.14-1.05-.06-1.5.02-.11.14-.96.32-.96.14,0,.33.61.89.8s9.94-.09,9.94-.09Z"/>
      <path class="cls-1" d="M85.88,27.72l11.55-.25.17,4.88s-2.43-.03-4.02,3.41c0,0-6.51.28-7.7-8.04Z"/>
      <path class="cls-1" d="M3.69,17.59s3.44-.49,6.51,4.2c0,0,.44,1.56-1.19,1.38S0,22.79,0,22.79v-3.38s2.07.61,3.69-1.82Z"/>
      <path class="cls-1" d="M0,24.12v1.88c2.1-.07,4.23-.15,6.33.02,1.36.11,2.84.67,4.18.21.22-.07.43-.18.57-.36.31-.39.14-1.05.06-1.5-.02-.11-.14-.96-.32-.96-.14,0-.33.61-.89.8S0,24.12,0,24.12Z"/>
      <path class="cls-1" d="M11.72,27.55l-11.55-.25-.17,4.88s2.43-.03,4.02,3.41c0,0,6.51.28,7.7-8.04Z"/>
      <path class="cls-1" d="M3.15,40.95s24.58-9.01,30.5-10.42,9.21-2.07,9.21-2.07c0,0,1.13-1.22.94,1.5,0,0,.17.63-.36.72s-2.6.44-4.38,2.07-21.28,13.33-35.91,8.2Z"/>
      <path class="cls-1" d="M53.8,28.44l-.75.23s.28.7,0,.8-.14.89.38,1.08,19.58,10.28,26.24,10.89,7.28.38,13.38,0c-.29.02-.87-.37-1.14-.49-.45-.19-.9-.39-1.35-.58-.87-.37-1.74-.75-2.6-1.12-1.74-.74-3.48-1.48-5.23-2.19-3.44-1.41-6.92-2.75-10.45-3.92-6.04-2.01-12.28-3.25-18.47-4.7Z"/>
      <path class="cls-1" d="M46.52,31.32s.56.47,2.5.3c0,0,1.5-.24,1.82-.3s7.26,2.88,9.01,9.64-2.57,8.39-8.32,8.2c0,0-1.08-1.88-3.01-1.82s-3,2.12-3,2.13c-.22.43-4.12-.48-4.58-.61-1.5-.42-3.12-1.15-3.83-2.63-1.91-3.96,1.68-9.63,4.72-12.03,3.57-2.82,4.69-2.88,4.69-2.88Z"/>
      <path class="cls-1" d="M43.83,50.91s-31.6-3.38-42.12-8.26c0,0-1.94,0-1.38,1.88s9.26,6.95,38.12,7.14l5.6-.16s.26-.54-.22-.59Z"/>
      <path class="cls-1" d="M54.28,50.76s31.6-3.38,42.12-8.26c0,0,1.94,0,1.38,1.88s-9.26,6.95-38.12,7.14h-6.75s-.6-.53,1.37-.75Z"/>
    </g>
  </g>
</svg>