<?xml version="1.0" encoding="UTF-8"?>
<svg id="_图层_2" data-name="图层 2" xmlns="http://www.w3.org/2000/svg" viewBox="0 0 111.02 41.34">
  <defs>
    <style>
      .cls-1 {
        fill: #fff;
        stroke-width: 0px;
      }
    </style>
  </defs>
  <g id="_图层_1-2" data-name="图层 1">
    <g>
      <path class="cls-1" d="M27.82.92s-10.99,16.24-1.05,27.03c.59.64,3.22-3.04,3.35-3.27,2.81-4.92,2.86-9.9,1.45-15.21-.77-2.9-1.76-6.24-3.75-8.54Z"/>
      <path class="cls-1" d="M3.27.01S-2.17,7.18.98,17.97c.73,2.5,2.18,4.73,4.14,6.45,1.72,1.5,3.76,2.6,5.9,3.39,1.35.5,2.77.81,4.18,1.07.44.08.93.12,2.69,1.03.08-.34.3-.69.41-1.03.13-.4.24-.81.36-1.21,2.55-8.6,1.92-19.93-6.81-24.86C9.76,1.62,7.47.85,5.14.35c-.31-.07-.62-.13-.93-.19-.1-.02-.88-.22-.93-.16Z"/>
      <path class="cls-1" d="M51.19.5s5.44,7.16,2.29,17.96c-.73,2.5-2.18,4.73-4.14,6.45-1.72,1.5-3.76,2.6-5.9,3.39-1.35.5-2.77.81-4.18,1.07-.44.08-.93.12-2.69,1.03-.08-.34-.3-.69-.41-1.03-.13-.4-.24-.81-.36-1.21-2.55-8.6-1.92-19.93,6.81-24.86,2.08-1.17,4.37-1.94,6.7-2.44.31-.07.62-.13.93-.19.1-.02.88-.22.93-.16Z"/>
      <path class="cls-1" d="M1.08,39.98s4.59-9.93,16.29-7.5c0,0-1.39,10.27-16.29,7.5Z"/>
      <path class="cls-1" d="M53.04,39.98s-4.59-9.93-16.29-7.5c0,0,1.39,10.27,16.29,7.5Z"/>
      <path class="cls-1" d="M83.57,1.4s-10.99,16.24-1.05,27.03c.59.64,3.22-3.04,3.35-3.27,2.81-4.92,2.86-9.9,1.45-15.21-.77-2.9-1.76-6.24-3.75-8.54Z"/>
      <path class="cls-1" d="M108.13,40.82s5.19-7.35,1.66-18.03c-.82-2.48-2.34-4.65-4.36-6.3-1.77-1.44-3.85-2.47-6.01-3.18-1.37-.45-2.79-.71-4.22-.92-.45-.07-.94-.08-2.72-.93-.06.34-.27.7-.37,1.05-.12.41-.21.82-.32,1.22-2.25,8.69-1.22,19.99,7.68,24.61,2.12,1.1,4.44,1.79,6.78,2.2.31.06.63.11.94.15.1.02.89.19.93.12Z"/>
      <path class="cls-1" d="M59.36,41.33s-5.69-6.97-2.92-17.87c.64-2.53,2.01-4.8,3.91-6.59,1.67-1.56,3.67-2.73,5.78-3.59,1.34-.54,2.74-.91,4.14-1.22.44-.1.93-.15,2.65-1.12.09.34.32.68.44,1.02.14.4.27.8.4,1.2,2.85,8.51,2.61,19.85-5.94,25.09-2.04,1.25-4.3,2.09-6.61,2.67-.31.08-.62.15-.93.22-.1.02-.87.25-.92.19Z"/>
      <path class="cls-1" d="M110.16.81s-4.24,10.09-16.02,8.06c0,0,1.03-10.31,16.02-8.06Z"/>
      <path class="cls-1" d="M56.13.82s4.93,9.77,16.54,6.93c0,0-1.74-10.21-16.54-6.93Z"/>
    </g>
  </g>
</svg>