<?xml version="1.0" encoding="UTF-8"?>
<svg id="_图层_2" data-name="图层 2" xmlns="http://www.w3.org/2000/svg" viewBox="0 0 103.21 66">
  <defs>
    <style>
      .cls-1 {
        fill: #fff;
      }

      .cls-1, .cls-2 {
        stroke-width: 0px;
      }

      .cls-2 {
        fill: #8f220d;
      }
    </style>
  </defs>
  <g id="_图层_1-2" data-name="图层 1">
    <path class="cls-1" d="M51.51,34.17c-1.76.4-3.39,1.17-4.84,2.25-3.67,2.75-5.55,7.12-6.17,11.57-.17,1.2-.25,2.41-.27,3.62-.03,1.67.08,3.38.62,4.98.57,1.7,1.69,3.08,2.87,4.4,1.35,1.51,3.07,2.84,5.12,3.18.49.08,1.27-.26,1.72-.4,1.37-.43,2.68-1.07,3.86-1.91,5.46-3.87,6.45-11.08,5.64-17.27-.31-2.41-.98-4.49-2.37-6.51-.38-.56-1.91-3.18-2.85-2.8,0,0-1.53.89-2.08.69s-.64-1.94-1.25-1.81Z"/>
    <path class="cls-1" d="M49.37,20.95c.61-.16,1.13-.59,1.34-1.19,1.02-2.82,2.37-10.85-12.26-16.09C20.45-2.77,8.23,1.23,8.23,1.23c0,0-7.11,25.56,35.33,24.89h1.2c1.7,0,3.03-1.41,2.98-3.11-.01-.32,0-.63.04-.89.1-.65.92-1,1.59-1.17Z"/>
    <ellipse class="cls-2" cx="54.08" cy="26.7" rx="6.22" ry="7.46"/>
    <path class="cls-1" d="M1.29,44.19s22-19.17,45.17-15.5c0,0,3.67,1.29-2.17,5.48S20.95,53.19,2.12,50.19c0,0-4.15-1.6-.83-6Z"/>
    <path class="cls-1" d="M59.19,20.59S66.95-1.74,101.45,1.61c1.14.11,1.92,1.18,1.73,2.31-.38,2.21-.39,5.55-.52,6.13-.6,2.86-2.63,4.3-4.79,5.99-1.47,1.15-3,2.21-4.58,3.18-4.62,2.82-9.72,4.83-15,6.03-2.39.55-4.81.93-7.25,1.17-2.72.27-5.7-.16-8.36.28,0,0-3.33.55-1.67-2.28,0,0,.17-2.63-1.83-1.98s-.33-1.05,0-1.85Z"/>
    <path class="cls-1" d="M62.13,30.14s-4.16.04-1.83,4.02,10.16,20.87,37.5,15.01c0,0,5.17-2.14-3.17-10.08s-20.5-9.11-24.67-8.95-7.83,0-7.83,0Z"/>
    <path class="cls-1" d="M0,55.2s2.19-6.44,21.08,0,17.78,8.98,17.78,8.98c0,0-16,2.54-22.67,0S3.37,61.2,0,55.2Z"/>
    <path class="cls-1" d="M54.08,64.18s22.33-13.6,41-11.85-9.56,11.85-9.56,11.85c0,0-15.11,4.1-31.44,0Z"/>
  </g>
</svg>