<?xml version="1.0" encoding="UTF-8"?>
<svg id="_图层_2" data-name="图层 2" xmlns="http://www.w3.org/2000/svg" viewBox="0 0 92.42 59.1">
  <defs>
    <style>
      .cls-1 {
        fill: #fff;
        stroke-width: 0px;
      }
    </style>
  </defs>
  <g id="_图层_1-2" data-name="图层 1">
    <g id="_图层_1-2" data-name=" 图层 1-2">
      <path class="cls-1" d="M46.13,30.6c-1.58.36-3.04,1.05-4.33,2.01-3.29,2.46-4.97,6.38-5.53,10.36-.15,1.07-.22,2.16-.24,3.24-.03,1.5.07,3.03.56,4.46.51,1.52,1.51,2.76,2.57,3.94,1.21,1.35,2.75,2.54,4.58,2.85.44.07,1.14-.23,1.54-.36,1.23-.39,2.4-.96,3.46-1.71,4.89-3.47,5.78-9.92,5.05-15.47-.28-2.16-.88-4.02-2.12-5.83-.34-.5-1.71-2.85-2.55-2.51,0,0-1.37.8-1.86.62s-.57-1.74-1.12-1.62h0Z"/>
      <path class="cls-1" d="M44.21,18.76c.55-.14,1.01-.53,1.2-1.07.91-2.53,2.12-9.72-10.98-14.41C18.31-2.48,7.37,1.1,7.37,1.1c0,0-6.37,22.89,31.64,22.29h1.07c1.52,0,2.71-1.26,2.67-2.79,0-.29,0-.56.04-.8.09-.58.82-.9,1.42-1.05Z"/>
      <ellipse class="cls-1" cx="47.83" cy="23.95" rx="4.67" ry="5.6"/>
      <path class="cls-1" d="M1.16,39.57s19.7-17.17,40.45-13.88c0,0,3.29,1.16-1.94,4.91-5.23,3.75-20.9,17.03-37.76,14.35,0,0-3.72-1.43-.74-5.37Z"/>
      <path class="cls-1" d="M53,18.44S59.95-1.56,90.85,1.44c1.02.1,1.72,1.06,1.55,2.07-.34,1.98-.35,4.97-.47,5.49-.54,2.56-2.36,3.85-4.29,5.36-1.32,1.03-2.69,1.98-4.1,2.85-4.14,2.53-8.7,4.33-13.43,5.4-2.14.49-4.31.83-6.49,1.05-2.44.24-5.1-.14-7.49.25,0,0-2.98.49-1.5-2.04,0,0,.15-2.36-1.64-1.77s-.3-.94,0-1.66h0Z"/>
      <path class="cls-1" d="M55.64,26.99s-3.73.04-1.64,3.6,9.1,18.69,33.58,13.44c0,0,4.63-1.92-2.84-9.03s-18.36-8.16-22.09-8.01-7.01,0-7.01,0Z"/>
      <path class="cls-1" d="M0,49.43s1.96-5.77,18.88,0c16.92,5.77,15.92,8.04,15.92,8.04,0,0-14.33,2.27-20.3,0s-11.48-2.67-14.5-8.04Z"/>
      <path class="cls-1" d="M48.43,57.47s20-12.18,36.72-10.61c16.72,1.57-8.56,10.61-8.56,10.61,0,0-13.53,3.67-28.15,0Z"/>
    </g>
  </g>
</svg>