<?xml version="1.0" encoding="UTF-8"?>
<svg id="_图层_2" data-name="图层 2" xmlns="http://www.w3.org/2000/svg" viewBox="0 0 233.61 72.67">
  <defs>
    <style>
      .cls-1 {
        fill: #000;
        stroke-width: 0px;
      }
    </style>
  </defs>
  <g id="_图层_1-2" data-name="图层 1">
    <g>
      <path class="cls-1" d="M3.16,3.74c.39-.53.86-1.1,1.38-1.69l-1.38,1.69Z"/>
      <path class="cls-1" d="M233.01,22.27c-.08-.06-.16-.12-.26-.17-.8-.45-1.86-.51-2.75-.64-1.01-.14-2.03-.23-3.04-.26-1.39-.04-2.84.28-3.9,1.23-1.47,1.31-2.25,3.07-4.25,3.74-1.09.37-2.28.26-3.43.15-2.44-.24-5.04-.47-7.25-1.65-2.28-1.22-4.07-3.24-6.19-4.7-3.37-2.31-6.86-4.45-10.43-6.42-7.16-3.95-14.68-7.25-22.37-10.02-2.41-.87-4.83-1.68-7.27-2.44-1.2-.37-5.69-2.48-4.63.5,1.67,4.67,5.73,7.55,8.68,11.32,6.46,8.29-7.52,9.66-12.59,10.15-7.85.76-16.26,2.18-24.07,1.14-.83-.11-1.74-.3-2.69-.55.75.27,1.44.5,2.04.69-.72-.15-1.44-.4-2.1-.7-4.47-1.21-9.75-3.97-11.66-7.71-.35.5-3.85,5.19-3.95,5.13l4.02,2.48c.18.11.36.22.55.34.65.41,1.31.81,1.9,1.31.35.3.61.65.89,1.02-11,2-37.83.5-64.17-3-3.3-.44-6.59-.97-9.86-1.58-3.16-.59-6.32-1.24-9.45-1.96-2.93-.67-5.85-1.39-8.76-2.15-2.61-.69-5.2-1.41-7.79-2.17-2.18-.64-4.36-1.31-6.53-2.01-1.28-.41-2.55-.84-3.82-1.27-1.22-.42-2.45-.98-3.73-1.21-.2-.04-.55-.14-1.17-.26.12.15.48.42.62.54.24.2.48.4.73.59.48.37.97.72,1.48,1.04.52.33,1.06.62,1.62.87.59.27,1.14.62,1.75.87,1.42.71,2.85,1.4,4.3,2.04,2.89,1.29,5.83,2.46,8.81,3.51,2.98,1.05,6,1.99,9.04,2.84,3.05.85,6.13,1.6,9.22,2.27,3.1.68,6.22,1.28,9.35,1.82.91.16,1.82.31,2.73.46,35.34,5.79,71.66,5.94,107.26,2.76.18-.02.36-.03.55-.05,2.19-.2,4.38-.41,6.57-.64.41-.04.82,0,1.23,0,.03.16.06.32.09.48.14.71-15.73,5.18-17.02,5.5-16.75,4.2-34.16,4.91-51.35,4.44-17.06-.46-34.31-1.38-51.3-2.89-3.05-.27-6.1-.61-9.13-1.07-5.6-.84-11.2-1.86-16.6-3.58-5.3-1.68-10.34-4.08-14.92-7.25-1.38-.96-2.73-1.96-4.07-2.97-.62-.47-1.24-.93-1.87-1.39-.35-.25-.7-.5-1.06-.75-.25-.18-.84-.42-1-.68.5.8,1.27,1.63,1.57,1.97.44.51.89,1.02,1.33,1.54.49.52,15.41,16.36,18.44,17.84l2,1.58s-14.42,10.41-20.67,17.46l-1.38,1.69c.61-.37,1.91-1.02,2.48-1.31.98-.51,1.97-1,2.97-1.48,1.92-.92,3.86-1.79,5.82-2.6,3.93-1.63,7.95-3.04,12.03-4.23,8.29-2.42,16.61-4.65,25.19-5.92.89-.13,1.77-.25,2.66-.37h.04s.03,0,.04-.01c17.72-2.27,35.67-2.12,53.45-.66,20.54,1.69,41.4,4.38,58.8,16.16-2.98-2.02-8.3-2.9-11.78-3.79-4.25-1.09-8.53-2.05-12.84-2.9-26.06-5.1-52.98-5.85-79.32-2.54-14.89,1.88-29.99,4.81-43.6,11.35-4.06,1.95-7.96,4.23-11.58,6.91-.4.3-1.37,1.29-1.66,1.73.42.02,1.96-.82,2.29-.98,10.97-5.3,23.36-7.76,35.27-9.95,35.11-6.48,71.55-4.99,106.6,1.19,1.54.27,14.17,2.04,12.83,3.84-.92,1.24-1.97,2.38-2.99,3.54-.51.58-1.02,1.16-1.5,1.76-.09.12-.96,1.48-.95,1.48.7.08,2.84-.39,3.46-.57,8.49-2.53,14.99-4.4,24-7.57,1.97-.69,5.26-2.03,7.17-2.86.95-.41,1.89-.83,2.83-1.27.18-.09,2.37-.94,2.37-1.09,3.57-1.58,7.37-3.09,11.22-4.08,2.17-.56,8.22-.36,8.88-3.19.72-3.06-.39-7.31,2.75-9.24,2.07-1.27,4.67-1.16,6.83-2.22,1.05-.52,1.92-1.29,2.51-2.31,1.31-2.3,2.27-4.78,3.21-7.26.47-1.24.93-2.48,1.43-3.71.47-1.15,1.24-2.37,1.38-3.62.06-.57-.16-1.07-.59-1.41ZM164.89,7.41c-.28-.36-.54-.74-.74-1.16,2.12.45,3.96,1.37,5.9,2.28,2.01.95,4.02,1.94,5.88,3.16,3.82,2.51,6.92,5.75,10.28,8.8.18.17.32.43.4.66-.86.61-2.22.83-3.22,1.16-3.21,1.03-6.24-1.16-8.31-3.43-2.18-2.39-3.9-4.66-6.14-7-1.33-1.4-2.83-2.96-4.04-4.48ZM164.98,66.72c1.18-2.02,2.13-4.01,3.68-5.8,2.42-2.8,5.68-5.11,9.03-6.67,3.44-1.6,7.37-2.17,10.86-.39,1.39.71,2.79,1.75,3.71,3.04,0,0-27.43,10.08-27.28,9.83ZM192.23,29.95c.05.71.02,1.47,0,1.64-.01.12-.03.23-.04.35,0,0-.36,19.4-.36,19.42,0,.04-1.23-.24-1.29-.26-1.07-.33-2.06-.92-2.9-1.66-3.46-3.08-4.52-8.69-3.58-13.08.73-3.41,2.54-7.06,6.28-7.81.17-.03,1.91-.23,1.91-.13,0,0-.03,1.53-.03,1.53ZM212.69,47.44c-.05.53-.16,1.05-.37,1.55-.76,1.79-2.67,1.98-4.35,2.33-3.4.7-6.87.84-10.32,1.19-.79.08-1.79-.14-2.1-.96-.35-.95-.02-2.26.08-3.23.14-1.3.25-2.64.55-3.91.42-2.06,2.93-2.17,4.62-2.09,2.48.12,4.96.19,7.44.25,1.8.04,4.46-.36,4.47,2.16,0,.88.07,1.82-.02,2.73ZM229.4,25.67c-1.58,3.56-2.98,7.21-4.71,10.69-.52,1.05-1.51,1.69-2.6,2.03-.89.28-1.83.37-2.76.43-4.44.32-8.85-.04-13.29-.04-2.67,0-5.34-.21-8.01-.28-1.39-.04-2.11-.78-2.18-2.12-.08-1.55-.16-3.12-.09-4.67.16-3.13.71-3.46,4.1-3.08-.2.18-.51.38-.69.56-1.17.68-1.96,1.9-1.96,3.31,0,2.14,1.79,3.88,4,3.88s4-1.73,4-3.88c0-1.41-.78-2.63-1.94-3.31-.11-.14-.2-.29-.32-.42.36-.42.74-.86.86-.99.96.29,1.9.72,2.9.88,1.2.2,2.43.27,3.63.4,2.51.26,5.02.47,7.53.64,1.82.12,3.08-.34,4.54-1.42,1.39-1.03,2.53-2.39,3.88-3.48.56-.45,1.37-.8,2.07-.81.94,0,1.57.47,1.04,1.66Z"/>
    </g>
  </g>
</svg>