{
  "asset": {
    "generator": "Khronos glTF Blender I/O v4.2.57",
    "version": "2.0"
  },
  "scene": 0,
  "scenes": [
    {
      "name": "Scene",
      "nodes": [
        0
      ]
    }
  ],
  "nodes": [
    {
      "mesh": 0,
      "name": "Mesh_0",
      "scale": [
        0.00006105750799179077,
        0.00006105750799179077,
        0.00006105750799179077
      ],
      "translation": [
        -0.50018310546875,
        -0.30572509765625,
        -0.5001220703125
      ],
      "rotation": [
        0,
        0,
        0,
        1
      ]
    }
  ],
  "meshes": [
    {
      "name": "Mesh_0",
      "primitives": [
        {
          "attributes": {
            "POSITION": 0
          },
          "indices": 1,
          "mode": 4,
          "material": 0
        }
      ]
    }
  ],
  "accessors": [
    {
      "bufferView": 0,
      "componentType": 5126,
      "count": 48649,
      "max": [
        16383,
        10007,
        16381
      ],
      "min": [
        0,
        0,
        0
      ],
      "type": "VEC3",
      "byteOffset": 0
    },
    {
      "bufferView": 1,
      "componentType": 5123,
      "count": 291864,
      "type": "SCALAR",
      "byteOffset": 0
    }
  ],
  "bufferViews": [
    {
      "buffer": 0,
      "byteLength": 583788,
      "byteOffset": 0,
      "target": 34962,
      "byteStride": 12
    },
    {
      "buffer": 0,
      "byteLength": 583728,
      "byteOffset": 583792,
      "target": 34963
    }
  ],
  "buffers": [
    {
      "name": "model",
      "byteLength": 1167520,
      "uri": "data:application/octet-stream;base64,"
    }
  ],
  "materials": [
    {
      "name": "default",
      "emissiveFactor": [
        0,
        0,
        0
      ],
      "alphaMode": "OPAQUE",
      "doubleSided": false
    }
  ]
}
